<svg viewBox="-50 -50.98757763975163 499.2 487.51552795031057" xmlns="http://www.w3.org/2000/svg" overflow="visible" xmlns:xlink="http://www.w3.org/1999/xlink" width="499.2px" height="487.51552795031057px">
	<g id="Master/Spot Illustration/Working" stroke="none" stroke-width="1" fill="none" fill-rule="evenodd">
		<g id="Floor/Carpet" transform="translate(151.721600, 471.398000) scale(1 1)">
			<g id="Floor/Carpet/Pink" stroke="none" stroke-width="1" fill="none" fill-rule="evenodd">
				<g id="Simple-Carpet" transform="translate(41.000000, 32.000000)">
					<path d="M450.8618,46.9304 C450.8618,72.5734 350.0448,93.3614 225.6808,93.3614 C101.3178,93.3614 0.5008,72.5734 0.5008,46.9304 C0.5008,21.2864 101.3178,0.4994 225.6808,0.4994 C350.0448,0.4994 450.8618,21.2864 450.8618,46.9304" id="Carpet" fill="#E68371"/>
					<path d="M27.204,55.534 C27.48,55.534 27.704,55.31 27.704,55.034 C27.704,54.017 28.708,53.213 29.77,53.61 C30.001,53.694 30.257,53.604 30.38,53.392 C30.658,52.91 31.151,52.622 31.697,52.622 C32.387,52.622 32.992,53.092 33.168,53.764 C33.214,53.94 33.351,54.077 33.527,54.122 C33.701,54.168 33.889,54.113 34.014,53.982 C34.306,53.676 34.697,53.507 35.116,53.507 C35.958,53.507 36.644,54.192 36.644,55.034 C36.644,55.31 36.868,55.534 37.144,55.534 C37.42,55.534 37.644,55.31 37.644,55.034 C37.644,53.64 36.51,52.507 35.116,52.507 C34.665,52.507 34.234,52.624 33.854,52.845 C33.406,52.1 32.595,51.622 31.697,51.622 C30.936,51.622 30.217,51.974 29.741,52.561 C28.168,52.228 26.704,53.471 26.704,55.034 C26.704,55.31 26.928,55.534 27.204,55.534 M370.476,81.984 C330.035,88.998 278.613,92.861 225.681,92.861 C101.792,92.861 1,72.257 1,46.93 C1,46.654 0.777,46.43 0.5,46.43 C0.224,46.43 0,46.654 0,46.93 C0,59.596 23.565,71.429 66.353,80.252 C108.917,89.028 165.5,93.861 225.681,93.861 C278.668,93.861 330.151,89.993 370.647,82.969 C370.919,82.922 371.101,82.663 371.054,82.391 C371.007,82.118 370.748,81.928 370.476,81.984 M84.281,48.887 C84.557,48.887 84.781,48.663 84.781,48.387 C84.781,47.368 85.792,46.565 86.846,46.962 C87.074,47.049 87.334,46.957 87.457,46.745 C87.735,46.263 88.227,45.974 88.774,45.974 C89.464,45.974 90.069,46.444 90.245,47.116 C90.291,47.291 90.428,47.428 90.603,47.473 C90.78,47.517 90.965,47.465 91.09,47.335 C91.383,47.027 91.775,46.858 92.193,46.858 C93.035,46.858 93.721,47.544 93.721,48.387 C93.721,48.663 93.944,48.887 94.221,48.887 C94.497,48.887 94.721,48.663 94.721,48.387 C94.721,46.992 93.587,45.858 92.193,45.858 C91.742,45.858 91.311,45.975 90.932,46.197 C90.483,45.453 89.672,44.974 88.774,44.974 C88.013,44.974 87.294,45.326 86.819,45.914 C85.248,45.571 83.781,46.822 83.781,48.387 C83.781,48.663 84.004,48.887 84.281,48.887 M374.247,70.53 C373.797,70.53 373.366,70.647 372.986,70.869 C372.538,70.125 371.727,69.645 370.829,69.645 C370.068,69.645 369.35,69.998 368.873,70.586 C367.301,70.244 365.835,71.494 365.835,73.058 C365.835,73.335 366.059,73.558 366.335,73.558 C366.612,73.558 366.835,73.335 366.835,73.058 C366.835,72.04 367.846,71.236 368.901,71.634 C369.127,71.721 369.389,71.63 369.512,71.417 C369.79,70.933 370.282,70.645 370.829,70.645 C371.518,70.645 372.123,71.115 372.299,71.788 C372.346,71.963 372.482,72.099 372.658,72.145 C372.834,72.191 373.019,72.137 373.145,72.007 C373.438,71.699 373.829,71.53 374.247,71.53 C375.09,71.53 375.775,72.216 375.775,73.058 C375.775,73.335 375.999,73.558 376.275,73.558 C376.552,73.558 376.775,73.335 376.775,73.058 C376.775,71.664 375.641,70.53 374.247,70.53 M381.316,49.296 C380.866,49.296 380.434,49.413 380.055,49.634 C379.607,48.889 378.796,48.411 377.898,48.411 C377.137,48.411 376.418,48.763 375.942,49.35 C374.366,49.02 372.905,50.262 372.905,51.823 C372.905,52.099 373.128,52.323 373.405,52.323 C373.681,52.323 373.905,52.099 373.905,51.823 C373.905,50.806 374.908,50 375.971,50.399 C376.2,50.485 376.458,50.393 376.58,50.181 C376.859,49.699 377.351,49.411 377.898,49.411 C378.587,49.411 379.192,49.881 379.369,50.554 C379.415,50.729 379.552,50.866 379.728,50.911 C379.903,50.957 380.09,50.902 380.215,50.771 C380.507,50.465 380.898,50.296 381.316,50.296 C382.159,50.296 382.845,50.981 382.845,51.823 C382.845,52.099 383.068,52.323 383.345,52.323 C383.621,52.323 383.845,52.099 383.845,51.823 C383.845,50.43 382.71,49.296 381.316,49.296 M322.598,41.208 C322.874,41.208 323.098,40.984 323.098,40.708 C323.098,39.691 324.101,38.886 325.164,39.284 C325.394,39.368 325.651,39.277 325.774,39.066 C326.052,38.584 326.545,38.296 327.091,38.296 C327.781,38.296 328.386,38.765 328.562,39.438 C328.608,39.614 328.746,39.751 328.921,39.796 C329.096,39.842 329.283,39.787 329.408,39.656 C329.7,39.349 330.091,39.18 330.51,39.18 C331.352,39.18 332.038,39.866 332.038,40.708 C332.038,40.984 332.262,41.208 332.538,41.208 C332.814,41.208 333.038,40.984 333.038,40.708 C333.038,39.314 331.904,38.18 330.51,38.18 C330.059,38.18 329.628,38.298 329.248,38.518 C328.8,37.774 327.989,37.296 327.091,37.296 C326.33,37.296 325.611,37.648 325.135,38.235 C323.559,37.903 322.099,39.145 322.098,40.708 C322.098,40.984 322.322,41.208 322.598,41.208 M261.808,79.283 C262.084,79.283 262.308,79.059 262.308,78.783 C262.308,77.766 263.312,76.961 264.374,77.359 C264.603,77.443 264.861,77.353 264.983,77.141 C265.262,76.659 265.754,76.371 266.301,76.371 C266.99,76.371 267.595,76.841 267.772,77.513 C267.818,77.687 267.955,77.824 268.13,77.87 C268.306,77.915 268.492,77.862 268.617,77.731 C268.91,77.425 269.301,77.256 269.719,77.256 C270.562,77.256 271.247,77.941 271.247,78.783 C271.247,79.059 271.471,79.283 271.747,79.283 C272.024,79.283 272.247,79.059 272.247,78.783 C272.247,77.389 271.113,76.256 269.719,76.256 C269.268,76.256 268.837,76.373 268.458,76.594 C268.01,75.849 267.199,75.371 266.301,75.371 C265.54,75.371 264.821,75.723 264.345,76.31 C262.77,75.98 261.308,77.221 261.308,78.783 C261.308,79.059 261.531,79.283 261.808,79.283 M149.03,69.412 C148.582,68.668 147.771,68.189 146.873,68.189 C146.112,68.189 145.393,68.542 144.917,69.129 C143.341,68.798 141.88,70.039 141.88,71.601 C141.88,71.878 142.103,72.101 142.38,72.101 C142.656,72.101 142.88,71.878 142.88,71.601 C142.879,70.585 143.883,69.779 144.946,70.178 C145.176,70.262 145.433,70.171 145.556,69.96 C145.834,69.477 146.327,69.189 146.873,69.189 C147.562,69.189 148.167,69.659 148.344,70.332 C148.39,70.508 148.527,70.644 148.703,70.689 C148.878,70.735 149.065,70.68 149.19,70.55 C149.482,70.243 149.873,70.074 150.291,70.074 C151.134,70.074 151.82,70.76 151.82,71.601 C151.82,71.878 152.043,72.101 152.32,72.101 C152.596,72.101 152.82,71.878 152.82,71.601 C152.82,70.208 151.685,69.074 150.291,69.074 C149.841,69.074 149.41,69.191 149.03,69.412 M130.1,5.378 C130.116,5.378 130.132,5.377 130.149,5.376 C160.142,2.471 192.284,1 225.681,1 C225.957,1 226.181,0.776 226.181,0.5 C226.181,0.223 225.957,-1.13686838e-13 225.681,-1.13686838e-13 C192.252,-1.13686838e-13 160.078,1.473 130.052,4.38 C129.777,4.407 129.576,4.651 129.603,4.926 C129.628,5.184 129.846,5.378 130.1,5.378 M239.764,16.89 C240.04,16.89 240.264,16.667 240.264,16.39 C240.264,15.374 241.268,14.569 242.331,14.967 C242.561,15.051 242.818,14.961 242.94,14.749 C243.218,14.266 243.711,13.978 244.257,13.978 C244.947,13.978 245.552,14.448 245.728,15.12 C245.774,15.295 245.911,15.431 246.087,15.477 C246.262,15.521 246.448,15.469 246.574,15.339 C246.866,15.032 247.258,14.863 247.676,14.863 C248.518,14.863 249.204,15.549 249.204,16.39 C249.204,16.667 249.428,16.89 249.704,16.89 C249.98,16.89 250.204,16.667 250.204,16.39 C250.204,14.997 249.07,13.863 247.676,13.863 C247.225,13.863 246.794,13.98 246.415,14.201 C245.967,13.457 245.156,12.978 244.257,12.978 C243.496,12.978 242.777,13.331 242.301,13.918 C240.73,13.587 239.264,14.828 239.264,16.39 C239.264,16.667 239.488,16.89 239.764,16.89" id="Fill-15" fill="#000"/>
				</g>
			</g>
		</g>
		<g id="Working Stuff" transform="translate(180.822000, 90.172000) scale(1 1)">
			<g id="Working Stuff/Windows" stroke="none" stroke-width="1" fill="none" fill-rule="evenodd">
				<g id="Working-Windows" transform="translate(8.000000, 24.000000)">
					<polygon id="Fill-1" fill="#F1EFEF" points="59 59 210 59 210 1 59 1"/>
					<path d="M210.224867,0.823099559 C210.47268,0.823099559 210.673803,1.02440352 210.673803,1.27243877 L210.673803,59.0296018 C210.673803,59.277637 210.47268,59.478941 210.224867,59.478941 L59.2377562,59.478941 C58.9899434,59.478941 58.78882,59.277637 58.78882,59.0296018 C58.78882,58.7815665 58.9899434,58.5802626 59.2377562,58.5802626 L209.775931,58.5802626 L209.775931,1.27243877 C209.775931,1.02440352 209.977054,0.823099559 210.224867,0.823099559 Z M120.630945,9.72639648 C120.878757,9.72639648 121.079881,9.92680176 121.079881,10.1757357 L121.079881,51.1410925 C121.079881,51.3891278 120.878757,51.5904317 120.630945,51.5904317 L69.0005915,51.5904317 C68.7518809,51.5904317 68.5516553,51.3891278 68.5516553,51.1410925 L68.5516553,10.1757357 C68.5516553,9.92680176 68.7518809,9.72639648 69.0005915,9.72639648 L120.630945,9.72639648 Z M120.182009,10.6250749 L69.4495277,10.6250749 L69.4495277,50.6917533 L120.182009,50.6917533 L120.182009,10.6250749 Z" id="Combined-Shape" fill="#000"/>
					<polygon id="Fill-8" fill="#F1EFEF" points="0.44893617 156.955084 156.641911 156.955084 156.641911 53.6007753 0.44893617 53.6007753"/>
					<polygon id="Fill-9" fill="#F1EFEF" points="108.915506 204 206.536677 204 206.536677 117.437498 108.915506 117.437498"/>
					<path d="M206.536677,169.115101 L206.536677,204 L108.915506,204 L108.915506,169.115101 L206.536677,169.115101 Z M156.641911,44.4818855 L156.641911,53.6007753 L0.44893617,53.6007753 L0.44893617,44.4818855 L156.641911,44.4818855 Z" id="Interface-color" fill="#94B1EB"/>
					<path d="M186.362383,180.824881 C186.610196,180.824881 186.811319,181.025286 186.811319,181.27422 L186.811319,194.012088 C186.811319,194.260123 186.610196,194.461427 186.362383,194.461427 L129.090698,194.461427 C128.842885,194.461427 128.641762,194.260123 128.641762,194.012088 L128.641762,181.27422 C128.641762,181.025286 128.842885,180.824881 129.090698,180.824881 L186.362383,180.824881 Z M185.912549,181.723559 L129.539634,181.723559 L129.539634,193.562749 L185.912549,193.562749 L185.912549,181.723559 Z M206.537305,116.988428 C206.785118,116.988428 206.986241,117.188833 206.986241,117.437767 C206.986241,117.685803 206.785118,117.887107 206.537305,117.887107 L109.365071,117.887107 L109.365071,191.550878 C109.365071,191.798913 109.163948,192.000217 108.916135,192.000217 C108.668322,192.000217 108.467199,191.798913 108.467199,191.550878 L108.467199,117.437767 C108.467199,117.188833 108.668322,116.988428 108.916135,116.988428 L206.537305,116.988428 Z M206.536946,168.665313 C206.784759,168.665313 206.985882,168.866617 206.985882,169.114652 C206.985882,169.362687 206.784759,169.563991 206.536946,169.563991 L128.150895,169.563991 C127.903082,169.563991 127.701959,169.362687 127.701959,169.114652 C127.701959,168.866617 127.903082,168.665313 128.150895,168.665313 L206.536946,168.665313 Z M199.305751,157.519184 C199.553564,157.519184 199.754688,157.720488 199.754688,157.968523 C199.754688,158.216559 199.553564,158.417863 199.305751,158.417863 L142.613194,158.417863 C142.365381,158.417863 142.164258,158.216559 142.164258,157.968523 C142.164258,157.720488 142.365381,157.519184 142.613194,157.519184 L199.305751,157.519184 Z M124.680618,133.200407 C130.669427,133.200407 135.54218,138.077535 135.54218,144.072619 C135.54218,150.066804 130.669427,154.943931 124.680618,154.943931 C118.690912,154.943931 113.818159,150.066804 113.818159,144.072619 C113.818159,138.077535 118.690912,133.200407 124.680618,133.200407 Z M124.680618,134.099085 C119.186537,134.099085 114.716031,138.573605 114.716031,144.072619 C114.716031,149.571632 119.186537,154.045253 124.680618,154.045253 C130.174699,154.045253 134.644308,149.571632 134.644308,144.072619 C134.644308,138.573605 130.174699,134.099085 124.680618,134.099085 Z M199.305751,145.359796 C199.553564,145.359796 199.754688,145.5611 199.754688,145.809135 C199.754688,146.05717 199.553564,146.258474 199.305751,146.258474 L142.613194,146.258474 C142.365381,146.258474 142.164258,146.05717 142.164258,145.809135 C142.164258,145.5611 142.365381,145.359796 142.613194,145.359796 L199.305751,145.359796 Z M199.305751,133.200407 C199.553564,133.200407 199.754688,133.401711 199.754688,133.649746 C199.754688,133.897781 199.553564,134.099085 199.305751,134.099085 L142.613194,134.099085 C142.365381,134.099085 142.164258,133.897781 142.164258,133.649746 C142.164258,133.401711 142.365381,133.200407 142.613194,133.200407 L199.305751,133.200407 Z" id="Combined-Shape" fill="#000"/>
					<path d="M72.9045404,65.7455154 C73.1532511,65.7455154 73.3534766,65.9468194 73.3534766,66.1948546 L73.3534766,145.808775 C73.3534766,146.057709 73.1532511,146.258115 72.9045404,146.258115 L9.84965957,146.258115 C9.60094894,146.258115 9.4007234,146.057709 9.4007234,145.808775 L9.4007234,66.1948546 C9.4007234,65.9468194 9.60094894,65.7455154 9.84965957,65.7455154 L72.9045404,65.7455154 Z M72.4565021,66.6441938 L10.2985957,66.6441938 L10.2985957,145.359436 L72.4565021,145.359436 L72.4565021,66.6441938 Z M147.530751,90.9326855 C147.778564,90.9326855 147.979687,91.1339894 147.979687,91.3820247 C147.979687,91.6300599 147.778564,91.8313639 147.530751,91.8313639 L81.5829255,91.8313639 C81.3342149,91.8313639 81.1339894,91.6300599 81.1339894,91.3820247 C81.1339894,91.1339894 81.3342149,90.9326855 81.5829255,90.9326855 L147.530751,90.9326855 Z M147.530751,82.537052 C147.778564,82.537052 147.979687,82.7383559 147.979687,82.9863912 C147.979687,83.2344264 147.778564,83.4357304 147.530751,83.4357304 L81.5829255,83.4357304 C81.3342149,83.4357304 81.1339894,83.2344264 81.1339894,82.9863912 C81.1339894,82.7383559 81.3342149,82.537052 81.5829255,82.537052 L147.530751,82.537052 Z M147.530751,74.1413286 C147.778564,74.1413286 147.979687,74.3426326 147.979687,74.5906678 C147.979687,74.8387031 147.778564,75.040007 147.530751,75.040007 L81.5829255,75.040007 C81.3342149,75.040007 81.1339894,74.8387031 81.1339894,74.5906678 C81.1339894,74.3426326 81.3342149,74.1413286 81.5829255,74.1413286 L147.530751,74.1413286 Z M147.530751,65.7456053 C147.778564,65.7456053 147.979687,65.9469093 147.979687,66.1949445 C147.979687,66.4429797 147.778564,66.6442837 147.530751,66.6442837 L81.5829255,66.6442837 C81.3342149,66.6442837 81.1339894,66.4429797 81.1339894,66.1949445 C81.1339894,65.9469093 81.3342149,65.7456053 81.5829255,65.7456053 L147.530751,65.7456053 Z M156.641911,44.0329057 C156.889723,44.0329057 157.090847,44.233311 157.090847,44.4822449 L157.090847,53.6011348 C157.090847,53.84917 156.889723,54.050474 156.641911,54.050474 L0.44893617,54.050474 C0.201123404,54.050474 8.52651283e-14,53.84917 8.52651283e-14,53.6011348 C8.52651283e-14,53.3530996 0.201123404,53.1517956 0.44893617,53.1517956 L156.192974,53.1517956 L156.192974,44.4822449 C156.192974,44.233311 156.394098,44.0329057 156.641911,44.0329057 Z M20.8325238,46.3485304 C22.2754047,46.3485304 23.4507196,47.5240018 23.4507196,48.9690767 C23.4507196,50.4141515 22.2754047,51.5905216 20.8325238,51.5905216 C19.389643,51.5905216 18.2143281,50.4141515 18.2143281,48.9690767 C18.2143281,47.5240018 19.389643,46.3485304 20.8325238,46.3485304 Z M30.0883306,46.3485304 C31.5312115,46.3485304 32.7065264,47.5240018 32.7065264,48.9690767 C32.7065264,50.4141515 31.5312115,51.5905216 30.0883306,51.5905216 C28.6454498,51.5905216 27.4701349,50.4141515 27.4701349,48.9690767 C27.4701349,47.5240018 28.6454498,46.3485304 30.0883306,46.3485304 Z M39.3441374,46.3485304 C40.7870183,46.3485304 41.9623332,47.5240018 41.9623332,48.9690767 C41.9623332,50.4141515 40.7870183,51.5905216 39.3441374,51.5905216 C37.9012566,51.5905216 36.7259417,50.4141515 36.7259417,48.9690767 C36.7259417,47.5240018 37.9012566,46.3485304 39.3441374,46.3485304 Z M20.8325238,47.2472088 C19.8834728,47.2472088 19.1122004,48.0191736 19.1122004,48.9690767 C19.1122004,49.9189797 19.8834728,50.6918432 20.8325238,50.6918432 C21.7815749,50.6918432 22.5528472,49.9189797 22.5528472,48.9690767 C22.5528472,48.0191736 21.7815749,47.2472088 20.8325238,47.2472088 Z M30.0883306,47.2472088 C29.1392796,47.2472088 28.3680072,48.0191736 28.3680072,48.9690767 C28.3680072,49.9189797 29.1392796,50.6918432 30.0883306,50.6918432 C31.0373817,50.6918432 31.808654,49.9189797 31.808654,48.9690767 C31.808654,48.0191736 31.0373817,47.2472088 30.0883306,47.2472088 Z M39.3441374,47.2472088 C38.3950864,47.2472088 37.623814,48.0191736 37.623814,48.9690767 C37.623814,49.9189797 38.3950864,50.6918432 39.3441374,50.6918432 C40.2931885,50.6918432 41.0644609,49.9189797 41.0644609,48.9690767 C41.0644609,48.0191736 40.2931885,47.2472088 39.3441374,47.2472088 Z" id="Combined-Shape" fill="#000"/>
					<path d="M176.367268,83.5993797 L190.255557,87.7144282 C191.157021,87.9813357 191.446136,89.1172652 190.780813,89.7831859 L187.051949,93.5136993 L193.054764,99.5210855 C193.756003,100.222953 193.756003,101.36068 193.054764,102.062548 C192.703696,102.413931 192.244883,102.589174 191.785173,102.589174 C191.325462,102.589174 190.866649,102.413931 190.515581,102.062548 L184.512949,96.0546993 L181.002983,99.5688952 C180.338557,100.234816 179.203647,99.9463401 178.936979,99.044067 L174.825621,85.1424106 C174.546383,84.1987982 175.423604,83.3198907 176.367268,83.5993797 Z" id="Combined-Shape" fill="#000"/>
				</g>
			</g>
		</g>
		<g id="Desk" transform="translate(161.000000, 285.770000)">
			<polygon fill="#83BB9E" points="268.0898 54.7969 1.3518 54.7969 1.3518 121.4819 84.7078 121.4819 84.7078 73.6429 268.0898 73.6429"/>
			<path d="M268.0898,54.2969 C267.8138,54.2969 267.5898,54.5209 267.5898,54.7969 L267.5898,73.3839 L1.8518,73.3839 L1.8518,54.7969 C1.8518,54.5209 1.6288,54.2969 1.3518,54.2969 C1.0758,54.2969 0.8518,54.5209 0.8518,54.7969 L0.8518,243.0109 C0.8518,243.2869 1.0758,243.5109 1.3518,243.5109 C1.6288,243.5109 1.8518,243.2869 1.8518,243.0109 L1.8518,74.3839 L267.5898,74.3839 L267.5898,243.0109 C267.5898,243.2869 267.8138,243.5109 268.0898,243.5109 C268.3658,243.5109 268.5898,243.2869 268.5898,243.0109 L268.5898,54.7969 C268.5898,54.5209 268.3658,54.2969 268.0898,54.2969 L268.0898,54.2969 Z M26.2548,84.7389 L60.2878,84.7389 L60.2878,83.0819 L26.2548,83.0819 L26.2548,84.7389 Z M60.7878,82.0819 L25.7548,82.0819 C25.4788,82.0819 25.2548,82.3059 25.2548,82.5819 L25.2548,85.2389 C25.2548,85.5159 25.4788,85.7389 25.7548,85.7389 L60.7878,85.7389 C61.0648,85.7389 61.2878,85.5159 61.2878,85.2389 L61.2878,82.5819 C61.2878,82.3059 61.0648,82.0819 60.7878,82.0819 L60.7878,82.0819 Z" id="Fill-44" fill="#000"/>
			<polygon id="Fill-45" fill="#E2A2B5" points="6.4996 54.839 19.9046 54.839 19.9046 0.23 6.4996 0.23"/>
			<polygon id="Fill-46" fill="#94B1EB" points="19.9046 54.839 33.3096 54.839 33.3096 12.338 19.9046 12.338"/>
			<path d="M33.31,11.8377 C33.033,11.8377 32.81,12.0617 32.81,12.3377 L32.81,54.3387 L20.405,54.3387 L20.405,20.7897 C20.405,20.5137 20.181,20.2897 19.905,20.2897 C19.628,20.2897 19.405,20.5137 19.405,20.7897 L19.405,54.3387 L6.5,54.3387 C6.224,54.3387 6,54.5627 6,54.8387 C6,55.1157 6.224,55.3387 6.5,55.3387 L33.31,55.3387 C33.586,55.3387 33.81,55.1157 33.81,54.8387 L33.81,12.3377 C33.81,12.0617 33.586,11.8377 33.31,11.8377" id="Path" fill="#000"/>
		</g>
		<g id="Chair" transform="translate(443.271900, 271.524000)">
			<path d="M131.249,71.057 C129.285,74.494 126.985,76.475 124.529,76.475 C117.344,76.475 111.499,59.546 111.499,38.737 C111.499,17.929 117.344,1 124.529,1 C131.713,1 137.559,17.929 137.559,38.737 C137.559,52.194 135.113,64.02 131.442,70.703 C131.331,70.788 131.259,70.913 131.249,71.057 Z M124.529,0 C116.662,0 110.499,17.015 110.499,38.737 C110.499,60.46 116.662,77.475 124.529,77.475 C127.021,77.475 129.341,75.764 131.349,72.739 C132.51,91.369 129.258,117.324 108.229,138.353 C108.034,138.549 108.034,138.865 108.229,139.06 C108.327,139.158 108.455,139.207 108.583,139.207 C108.711,139.207 108.838,139.158 108.936,139.06 C130.769,117.227 133.677,90.177 132.249,71.257 C136.075,64.408 138.559,52.524 138.559,38.737 C138.559,17.015 132.396,0 124.529,0 Z M109.083,136.821 C109.083,136.545 108.859,136.321 108.583,136.321 L0.5,136.321 C0.223,136.321 -1.27897692e-12,136.545 -1.27897692e-12,136.821 L-1.27897692e-12,150.593 C-1.27897692e-12,150.869 0.223,151.093 0.5,151.093 C0.776,151.093 1,150.869 1,150.593 L1,137.321 L108.583,137.321 C108.859,137.321 109.083,137.098 109.083,136.821 M86.426,241.555184 L57.378,222.819344 L57.378,140.49861 C57.378,140.232684 57.154,140.018598 56.878,140.018598 C56.601,140.018598 56.378,140.232684 56.378,140.49861 L56.378,222.819344 L27.159,241.664626 C26.239,241.304617 25.235,241.103012 24.18,241.103012 C19.821,241.103012 16.288,244.495739 16.288,248.679526 C16.288,252.865233 19.821,256.257 24.18,256.257 C28.539,256.257 32.073,252.865233 32.073,248.679526 C32.073,245.901215 30.509,243.478113 28.186,242.159999 L56.378,223.976174 L56.378,241.127013 C52.253,241.376619 48.985,244.657983 48.985,248.679526 C48.985,252.865233 52.519,256.257 56.878,256.257 C61.237,256.257 64.77,252.865233 64.77,248.679526 C64.77,244.657023 61.503,241.375659 57.378,241.127013 L57.378,223.976174 L85.341,242.012155 C82.876,243.294748 81.2,245.798492 81.2,248.679526 C81.2,252.865233 84.734,256.257 89.092,256.257 C93.452,256.257 96.985,252.865233 96.985,248.679526 C96.985,244.495739 93.452,241.103012 89.092,241.103012 C88.156,241.103012 87.26,241.267176 86.426,241.555184 Z" id="Fill-161" fill="#000"/>
			<polygon fill="#94B1EB" points="0.4991 151.593 108.5821 151.593 108.5821 137.822 0.4991 137.822"/>
		</g>
		<g transform="translate(481.908400, 153.500000) scale(-1, 1) translate(-481.908400, -153.500000) translate(216.408400, -222.000000) scale(1 1)" id="Master/Character/Sitting on Chair">
			<defs>
				<polygon id="mastercharactersitting-on-chair-path-1" points="0 0.0003 46.889 0.0003 46.889 52.9562 0 52.9562"/>
			</defs>
			<g id="Master/Character/Sitting on Chair" stroke="none" stroke-width="1" fill="none" fill-rule="evenodd">
				<g id="Lower Body/Sitting on Chair" transform="translate(71.000000, 393.000000) scale(1 1)">
					<g id="Lower Body/Sitting on Chair/Dark Blue Sandals" stroke="none" stroke-width="1" fill="none" fill-rule="evenodd">
						<g id="Group" transform="translate(135.999802, 170.499900)">
							<path d="M171.385998,181.0527 C165.388998,177.3777 137.739998,167.0987 137.110998,158.7277 C136.134998,145.7357 136.167998,124.9637 136.340998,110.0237 C128.285998,110.8727 119.012998,111.7577 109.150998,112.5217 L120.312998,158.9277 C120.852998,163.1147 121.579998,163.5157 117.027998,173.0137 C116.591998,173.9227 116.313998,174.7517 116.155998,175.5127 C106.130998,170.7557 93.6649979,164.3177 93.2459979,158.7277 C92.2699979,145.7357 92.3029979,124.9637 92.4759979,110.0237 C84.4209979,110.8727 75.1479979,111.7577 65.2849979,112.5217 L76.4479979,158.9277 C76.9879979,163.1147 77.7149979,163.5157 73.1629979,173.0137 C68.8489979,182.0107 79.4019979,183.4347 79.4019979,183.4347 L126.803998,183.553705 C126.993998,183.553705 127.173998,183.5147 127.337998,183.4457 L170.669998,183.553705 C171.416998,183.5557 172.023998,182.9497 172.023998,182.2027 C172.023998,181.7327 171.786998,181.2977 171.385998,181.0527" id="Skin" fill="#f4d4b8"/>
							<path d="M6.65009792,1 C6.65009792,1 -3.29290208,38.578 1.13709792,51.375 C5.12809792,62.902 13.5410979,70.907 51.7270979,67.749 C51.7270979,67.749 66.2290979,145.492 66.2290979,146.194 C66.2290979,146.795 89.9940979,144.317 96.8980979,143.585 C97.9310979,143.475 98.6860979,142.559 98.5970979,141.523 L91.3090979,65.524 L96.9250979,65.758 L110.912098,142.144 C111.074098,143.135 111.977098,143.831 112.977098,143.735 L142.096098,140.949 C143.132098,140.85 143.898098,139.938 143.817098,138.901 L135.797098,44.4 C134.863098,32.345 124.695098,23.108 112.607098,23.332 L96.2230979,23.635 L94.3510979,1 L6.65009792,1 Z" id="Pants" fill="#94B1EB"/>
							<path d="M155.612298,172.8965 C155.888298,172.8965 156.112298,173.1205 156.112298,173.3965 L156.112298,173.3965 L156.112298,184.0025 L130.015298,184.0025 C130.410298,184.4785 130.658298,185.0815 130.658298,185.7475 L130.658298,185.7475 L130.658298,186.1385 C130.658298,186.4155 130.435298,186.6385 130.158298,186.6385 C129.882298,186.6385 129.658298,186.4155 129.658298,186.1385 L129.658298,186.1385 L129.658298,185.7475 C129.658298,184.7855 128.875298,184.0025 127.914298,184.0025 L127.914298,184.0025 L120.532298,184.0025 C120.255298,184.0025 120.032298,183.7795 120.032298,183.5025 C120.032298,183.2265 120.255298,183.0025 120.532298,183.0025 L120.532298,183.0025 L127.914298,183.0025 C127.937298,183.0025 127.959298,183.0095 127.983298,183.0095 C127.985298,183.0075 127.988298,183.0045 127.991298,183.0025 L127.991298,183.0025 L155.112298,183.0025 L155.112298,173.3965 C155.112298,173.1205 155.335298,172.8965 155.612298,172.8965 Z M93.2082979,158.2285 C93.4832979,158.2085 93.7242979,158.4155 93.7442979,158.6905 C94.0832979,163.2045 103.290298,168.5905 111.953298,172.9115 C111.951298,172.9205 111.952298,172.9315 111.950298,172.9415 C112.124298,173.0195 112.247298,173.1925 112.247298,173.3965 L112.247298,173.3965 L112.247298,184.0025 L73.8692979,184.0025 C72.9072979,184.0025 72.1242979,184.7855 72.1242979,185.7475 C72.1242979,186.0235 71.9002979,186.2475 71.6242979,186.2475 C71.3482979,186.2475 71.1242979,186.0235 71.1242979,185.7475 C71.1242979,184.2345 72.3552979,183.0025 73.8692979,183.0025 L73.8692979,183.0025 L111.247298,183.0025 L111.247298,173.6785 C102.265298,169.1905 93.1212979,163.7445 92.7472979,158.7645 C92.7272979,158.4895 92.9332979,158.2505 93.2082979,158.2285 Z M120.679298,177.0845 C123.854298,178.5715 126.369298,179.7595 127.782298,180.6265 C128.331298,180.9615 128.658298,181.5505 128.658298,182.2035 C128.658298,182.4795 128.435298,182.7035 128.158298,182.7035 C127.882298,182.7035 127.658298,182.4795 127.658298,182.2035 C127.658298,181.9025 127.509298,181.6315 127.260298,181.4795 C125.924298,180.6615 123.399298,179.4635 120.440298,178.0795 C120.441298,178.0335 120.433298,177.9875 120.433298,177.9415 C120.442298,177.7265 120.442298,177.5115 120.428298,177.2975 C120.510298,177.2255 120.605298,177.1655 120.679298,177.0845 Z M83.5140688,161.60037 L83.6052979,161.6125 C83.8742979,161.6755 84.0402979,161.9445 83.9782979,162.2135 L83.9782979,162.2135 L83.5972979,163.8415 C83.2062979,165.5175 83.6982979,167.2445 84.9152979,168.4595 C85.1102979,168.6555 85.1102979,168.9715 84.9152979,169.1675 C84.8172979,169.2645 84.6892979,169.3135 84.5612979,169.3135 C84.4332979,169.3135 84.3052979,169.2645 84.2072979,169.1675 C82.7452979,167.7055 82.1532979,165.6295 82.6232979,163.6145 L82.6232979,163.6145 L83.0032979,161.9855 C83.0672979,161.7165 83.3292979,161.5515 83.6052979,161.6125 Z M127.378805,161.60037 L127.470298,161.6125 C127.738298,161.6755 127.905298,161.9445 127.843298,162.2135 L127.843298,162.2135 L127.462298,163.8415 C127.070298,165.5175 127.562298,167.2445 128.779298,168.4595 C128.975298,168.6555 128.975298,168.9715 128.779298,169.1675 C128.682298,169.2645 128.554298,169.3135 128.426298,169.3135 C128.298298,169.3135 128.170298,169.2645 128.072298,169.1675 C126.609298,167.7055 126.018298,165.6295 126.487298,163.6145 L126.487298,163.6145 L126.868298,161.9855 C126.932298,161.7165 127.193298,161.5515 127.470298,161.6125 Z M50.3822979,46.1545 L52.2212979,58.6755 L52.2197979,58.6663 C54.6427979,73.1583 66.7287979,145.4863 66.7287979,146.1943 C66.7287979,146.4703 66.5047979,146.6943 66.2287979,146.6943 C65.9527979,146.6943 65.7287979,146.4703 65.7287979,146.1943 C65.6257979,145.0633 56.2027979,88.5503 51.2337979,58.8313 L51.2322979,58.8215 L49.3932979,46.3005 C49.3532979,46.0265 49.5422979,45.7725 49.8152979,45.7325 C50.0942979,45.6895 50.3422979,45.8815 50.3822979,46.1545 Z M94.5455979,46.1403 L96.4175979,56.6713 C96.4181693,56.6761218 96.4182843,56.6768106 96.4183979,56.6775 L111.405398,142.0625 C111.450398,142.3345 111.265398,142.5925 110.993398,142.6365 C110.965398,142.6415 110.938398,142.6435 110.911398,142.6435 C110.670398,142.6435 110.458398,142.4695 110.418398,142.2245 L95.4313979,56.8395 L95.4309339,56.8384 L93.5605979,46.3153 C93.5125979,46.0433 93.6935979,45.7833 93.9655979,45.7353 C94.2395979,45.6863 94.4965979,45.8693 94.5455979,46.1403 Z M39.254537,21.7954 L71.2447682,22.6639578 C80.8515473,22.9243217 88.8841682,30.5908189 89.9287031,40.4978697 L91.5753245,56.0993467 C91.7022788,56.1809068 91.79302,56.3206648 91.8064979,56.4824 L92.6399339,66.2124 L92.7484571,67.2319562 C92.7536644,67.2829755 92.7514421,67.3330743 92.7426809,67.3810669 L95.0084979,93.8164 C95.0314979,94.0914 94.8274979,94.3344 94.5524979,94.3574 C94.5384979,94.3584 94.5234979,94.3594 94.5094979,94.3594 C94.2524979,94.3594 94.0334979,94.1634 94.0114979,93.9024 L91.5649339,65.3754 L88.9538038,40.6087277 C87.9622312,31.205115 80.3376165,23.9281467 71.2192678,23.6810044 L39.2290366,22.8124466 C38.9583402,22.8043102 38.7445293,22.5714065 38.7510805,22.2896846 C38.7582603,22.0089798 39.0309182,21.8025193 39.254537,21.7954 Z M100.958398,22.8957 C101.192398,22.8857 101.461398,23.1127 101.466452,23.3877 C101.470398,23.6637 101.250398,23.8917 100.973398,23.8957 L85.7523979,24.1377 L85.7443979,24.1377 C85.4723979,24.1377 85.2483979,23.9187 85.2443442,23.6457 C85.2403979,23.3697 85.4603979,23.1417 85.7363979,23.1377 L100.958398,22.8957 Z" id="Combined-Shape" fill="#000"/>
							<path d="M135.299098,44.4389 C134.397098,32.8049 124.657098,23.8279 113.035098,23.8279 C112.895098,23.8279 112.756098,23.8289 112.616098,23.8319 L96.2330979,24.1349 C95.9980979,24.1489 95.7480979,23.9409 95.7250979,23.6779 L93.8930979,1.4999 L6.65009792,1.4999 C6.37409792,1.4999 6.15009792,1.2759 6.15009792,0.9999 C6.15009792,0.7239 6.37409792,0.4999 6.65009792,0.4999 L94.3510979,0.4999 C94.6100979,0.4999 94.8270979,0.6979 94.8490979,0.9569 L96.6810979,23.1269 L112.597098,22.8319 C124.927098,22.5989 135.342098,32.0599 136.296098,44.3609 C136.318098,44.6369 136.111098,44.8769 135.836098,44.8989 C135.823098,44.8999 135.810098,44.8999 135.797098,44.8999 C135.538098,44.8999 135.319098,44.7009 135.299098,44.4389 Z" id="Fill-6" fill="#000"/>
							<path d="M171.778598,183.5029 L164.397598,183.5029 L164.397598,175.9029 C164.397598,175.3989 164.088598,174.9429 163.618598,174.7569 L157.300598,172.2499 C156.490598,171.9289 155.611598,172.5249 155.611598,173.3969 L155.611598,183.5029 L120.531598,183.5029 L120.531598,175.9029 C120.531598,175.3989 120.223598,174.9429 119.753598,174.7569 L113.435598,172.2499 C112.625598,171.9289 111.746598,172.5249 111.746598,173.3969 L111.746598,183.5029 L73.8685979,183.5029 C72.6285979,183.5029 71.6235979,184.5079 71.6235979,185.7469 L71.6235979,186.1389 C71.6235979,187.3779 72.6285979,188.3829 73.8685979,188.3829 L171.778598,188.3829 C173.018598,188.3829 174.023598,187.3779 174.023598,186.1389 L174.023598,185.7469 C174.023598,184.5079 173.018598,183.5029 171.778598,183.5029" id="Sandals" fill="#53627B"/>
						</g>
					</g>
				</g>
				<g id="Upper Body" transform="translate(8.000000, 265.000000) scale(1 1)">
					<g id="Upper Body/Saying Hi" stroke="none" stroke-width="1" fill="none" fill-rule="evenodd">
						<path d="M248.4562,201.2405 C265.1142,201.5385 267.7912,182.2035 267.7912,182.2035 L283.8542,186.9615 C283.8542,186.9615 298.944453,300.8885 296.564453,305.3505 C294.185453,309.8125 204.830729,308.6225 204.830729,305.3505 C204.830729,302.0785 218.4132,185.4745 218.4132,185.4745 C218.4132,185.4745 221.3882,183.0955 233.2862,181.3105 C233.2862,181.3105 231.7992,200.9425 248.4562,201.2405 Z" id="Top" fill="#EC7068"/>
						<path d="M185.8819,324.0878 C185.8819,324.0878 184.6159,321.1498 184.3769,315.3308 L166.3589,313.3938 C166.3549,317.0308 166.4339,320.7188 166.6269,324.4528 C164.5499,328.9308 161.0779,349.8968 163.1089,350.1548 C165.2749,350.4298 168.3619,338.4198 168.3619,338.4198 C168.3619,338.4198 165.9869,354.8928 168.7919,355.4128 C171.5959,355.9328 172.8859,338.7658 172.8859,338.7658 C172.8859,338.7658 171.3479,358.8168 174.7079,359.7648 C177.2099,360.4708 177.7099,348.7018 177.8019,342.6428 C177.8639,347.5548 178.3109,355.9898 180.6499,356.6598 C183.9639,357.6098 181.5579,323.3038 185.3339,333.9358 C189.1089,344.5668 191.7299,343.2828 191.7299,343.2828 C194.3929,340.5488 188.3559,328.6548 185.8819,324.0878 Z M343.3539,171.6458 C341.2019,171.2748 337.5859,183.1368 337.5859,183.1368 C337.5859,183.1368 340.6889,166.7838 337.9099,166.1408 C335.1319,165.4968 333.0809,182.5908 333.0809,182.5908 C333.0809,182.5908 335.5069,162.6268 332.1929,161.5308 C329.7239,160.7158 328.7029,172.4488 328.3419,178.4988 C328.4989,173.5898 328.4249,165.1418 326.1189,164.3688 C322.8499,163.2738 323.7329,197.6528 320.4319,186.8638 C317.1319,176.0758 314.4569,177.2418 314.4569,177.2418 C311.6749,179.8568 317.1789,192.0048 319.4479,196.6778 L319.4479,196.6778 C319.4479,196.6778 321.7879,202.8488 319.6889,214.7228 C324.5739,217.2308 331.8469,221.0018 337.2029,223.9448 C338.1949,215.4338 338.7669,206.4468 338.7009,197.1658 C340.9739,192.7848 345.3709,171.9938 343.3539,171.6458 L343.3539,171.6458 Z M257.737305,172.6848 L243.161305,172.6848 L243.161305,179.8228 L233.2869,181.3108 C233.2869,181.3108 229.4199,201.2398 248.4569,201.2398 C267.4939,201.2398 267.7919,182.2028 267.7919,182.2028 L257.737305,179.8228 L257.737305,172.6848 Z" id="Skin" fill="#f4d4b8"/>
						<path d="M276.1915,183.2136 C276.8795,181.6176 277.0545,180.5716 277.0545,180.5716 C269.6185,178.3446 262.8025,180.5716 262.8025,180.5716 C262.8025,180.5716 262.7085,191.0326 262.8025,205.6656 L262.8025,209.8666 L262.8335,209.8386 C263.1015,241.2426 264.2625,287.6926 268.7255,295.5346 C268.7255,295.5346 293.547043,291.421781 296.819043,293.800781 C296.819043,293.800781 293.656043,258.095 289.7105,238.5016 C293.3145,257.8156 300.3855,287.0866 313.0055,289.8826 C328.7135,293.3616 338.1515,238.5016 338.1515,238.5016 L338.8955,238.7566 C339.9085,239.1046 341.0095,238.5696 341.3545,237.5546 C342.3475,234.6296 344.1715,229.1426 344.1715,228.2766 C344.1715,227.0866 314.3815,212.0136 314.3815,212.0136 C305.5865,199.0316 293.3105,188.2786 276.1915,183.2136 Z M223.1735,180.5716 C223.1735,180.5716 223.3475,181.6156 224.0355,183.2106 C161.0215,201.8516 163.6815,297.6166 163.6815,297.6166 L160.7075,297.6166 L160.7075,312.7856 L188.3705,315.7606 L191.6425,303.5656 L188.3705,301.4836 C194.9145,252.4026 212.1425,225.3336 212.1425,225.3336 C209.6535,233.6546 205.3255,293.7486 205.3255,293.7486 C208.5975,291.3696 231.5015,295.5346 231.5015,295.5346 C235.9655,287.6926 237.1265,241.2426 237.3945,209.8386 L237.4255,209.8666 L237.4255,205.6656 C237.5185,191.0326 237.4255,180.5716 237.4255,180.5716 C237.4255,180.5716 230.6095,178.3446 223.1735,180.5716" id="Jacket" fill="#94B1EB"/>
						<path d="M173.0765,338.291 C173.3525,338.311 173.5585,338.552 173.5375,338.827 C172.9115,346.984 172.9505,358.73 174.9955,359.307 C175.2615,359.382 175.4165,359.658 175.3415,359.924 C175.2785,360.144 175.0785,360.288 174.8605,360.288 C174.8155,360.288 174.7695,360.282 174.7245,360.269 C171.1515,359.262 172.2775,342.167 172.5405,338.751 C172.5615,338.476 172.8015,338.247 173.0765,338.291 Z M177.9844,338.6755 C178.2604,338.6835 178.4774,338.9135 178.4694,339.1905 C178.2744,345.9055 178.9114,355.6215 180.9394,356.2035 C181.2054,356.2795 181.3584,356.5555 181.2824,356.8215 C181.2194,357.0405 181.0194,357.1835 180.8024,357.1835 C180.7564,357.1835 180.7104,357.1775 180.6644,357.1635 C177.1544,356.1595 177.3874,341.9915 177.4694,339.1615 C177.4784,338.8845 177.7454,338.6775 177.9844,338.6755 Z M168.586,337.9484 C168.859,337.9884 169.048,338.2414 169.009,338.5144 C167.895,346.2414 167.64,354.6864 169.035,354.9454 C169.306,354.9954 169.486,355.2554 169.435,355.5274 C169.391,355.7684 169.18,355.9364 168.944,355.9364 C168.914,355.9364 168.883,355.9334 168.852,355.9274 C165.812,355.3654 167.446,342.3474 168.019,338.3724 C168.059,338.0994 168.316,337.9164 168.586,337.9484 Z M167.5058,323.4345 C167.7128,323.6185 167.7328,323.9335 167.5498,324.1405 C165.6458,326.2925 162.1268,348.0515 163.3998,349.6985 C163.6328,349.7655 163.7878,349.9945 163.7568,350.2425 C163.7248,350.4945 163.5098,350.6785 163.2618,350.6785 C163.2408,350.6785 163.2198,350.6775 163.1978,350.6745 C162.9558,350.6435 162.6248,350.4915 162.4168,349.9405 C161.2498,346.8385 164.7318,325.8175 166.8008,323.4785 C166.9838,323.2705 167.3008,323.2525 167.5058,323.4345 Z M185.9569,333.7914 C189.3379,343.3124 191.6729,342.8584 191.6909,342.8444 C191.9409,342.7224 192.2239,342.8334 192.3449,343.0804 C192.4669,343.3284 192.3489,343.6334 192.1009,343.7554 C192.0519,343.7804 191.8759,343.8554 191.5939,343.8554 C191.3929,343.8554 191.1379,343.8164 190.8369,343.6944 C189.5439,343.1674 187.4839,341.0784 185.0139,334.1254 C184.9219,333.8654 185.0579,333.5794 185.3179,333.4874 C185.5779,333.3904 185.8639,333.5304 185.9569,333.7914 Z M163.6817,297.1164 C163.9247,297.1454 168.0417,297.7504 172.5187,299.8404 C176.7977,301.8374 182.3137,301.2894 182.3687,301.2844 L182.7127,301.2484 L184.8737,305.5694 L188.2367,300.8054 L191.9117,303.1434 L191.3737,303.9874 L188.5037,302.1614 L184.7277,307.5104 L182.1257,302.3084 C180.8017,302.4034 176.0437,302.5884 172.0967,300.7474 C167.7597,298.7224 163.6517,298.1174 163.6107,298.1114 L161.1927,298.1154 C161.0467,303.1524 160.9117,310.7504 161.0997,312.3254 L172.2717,313.5274 L172.1647,314.5214 L160.5387,313.2704 L160.4407,313.2094 C160.1497,313.0254 159.7507,312.7744 160.2067,297.6014 L160.2217,297.1164 L163.6817,297.1164 Z M179.7042,303.6864 C180.7002,303.6864 181.5092,304.4964 181.5092,305.4914 C181.5092,306.4874 180.7002,307.2964 179.7042,307.2964 C178.7082,307.2964 177.8992,306.4874 177.8992,305.4914 C177.8992,304.4964 178.7082,303.6864 179.7042,303.6864 Z M179.7042,304.6864 C179.2602,304.6864 178.8992,305.0474 178.8992,305.4914 C178.8992,305.9354 179.2602,306.2964 179.7042,306.2964 C180.1482,306.2964 180.5092,305.9354 180.5092,305.4914 C180.5092,305.0474 180.1482,304.6864 179.7042,304.6864 Z M237.5804,180.0954 L237.9254,180.2094 L237.9254,210.9734 L237.914923,210.96013 C237.8218,220.485652 237.012548,284.335521 231.9586,295.7362 L231.0446,295.3322 C236.162606,283.785573 236.88213,214.590745 236.922699,210.086868 L227.0314,201.3754 L230.8864,192.4774 C223.7684,187.0024 222.7204,180.9104 222.6794,180.6504 L222.6104,180.2174 L223.0294,180.0914 C230.5294,177.8484 237.2954,180.0034 237.5804,180.0954 Z M269.4287,213.7277 L270.4287,213.7387 C270.4227,214.2677 269.8787,266.8747 274.8647,288.2817 L273.8907,288.5087 C268.8777,266.9847 269.4227,214.2577 269.4287,213.7277 Z M230.7985,213.7277 C230.8045,214.2577 231.3495,266.9847 226.3365,288.5087 L225.3625,288.2817 C230.3485,266.8747 229.8045,214.2677 229.7985,213.7387 L230.7985,213.7277 Z M212.7708,217.7429 L213.7328,218.0189 C212.117801,223.675626 209.260926,256.311851 208.394593,266.529105 L218.3185,266.5263 L218.3185,283.0653 L209.8925,286.8813 L205.9495,281.6953 L207.1418,269.5009 C207.2918,267.6679 210.8338,224.5279 212.7708,217.7429 Z M287.3255,223.4158 C287.360776,223.652247 290.721186,246.152907 292.790906,266.525674 L292.7948,266.5258 L292.907479,267.684744 C292.949819,268.110096 292.991553,268.534309 293.032638,268.957158 L294.2788,281.6948 L290.3358,286.8818 L281.9088,283.0658 L281.9088,266.5258 L291.786056,266.525719 C289.717594,246.20482 286.371719,223.799909 286.3365,223.5648 L287.3255,223.4158 Z M217.3185,267.5263 L208.3395,267.5263 L208.140988,269.556348 C208.139901,269.569542 208.13917,269.57842 208.1388,269.5829 L206.9825,281.4023 L210.2055,285.6413 L217.3185,282.4213 L217.3185,267.5263 Z M291.887016,267.526142 L282.9088,267.5258 L282.9088,282.4208 L290.0218,285.6418 L293.2448,281.4018 L291.923318,267.890243 C291.911267,267.768969 291.899166,267.6476 291.887016,267.526142 Z M232.0997,269.8573 C233.0957,269.8573 233.9047,270.6673 233.9047,271.6633 C233.9047,272.6583 233.0957,273.4673 232.0997,273.4673 C231.1037,273.4673 230.2947,272.6583 230.2947,271.6633 C230.2947,270.6673 231.1037,269.8573 232.0997,269.8573 Z M232.0997,270.8573 C231.6557,270.8573 231.2947,271.2183 231.2947,271.6633 C231.2947,272.1063 231.6557,272.4673 232.0997,272.4673 C232.5437,272.4673 232.9047,272.1063 232.9047,271.6633 C232.9047,271.2183 232.5437,270.8573 232.0997,270.8573 Z M233.0997,253.9794 C234.0957,253.9794 234.9047,254.7894 234.9047,255.7854 C234.9047,256.7804 234.0957,257.5894 233.0997,257.5894 C232.1037,257.5894 231.2947,256.7804 231.2947,255.7854 C231.2947,254.7894 232.1037,253.9794 233.0997,253.9794 Z M233.0997,254.9794 C232.6557,254.9794 232.2947,255.3404 232.2947,255.7854 C232.2947,256.2284 232.6557,256.5894 233.0997,256.5894 C233.5437,256.5894 233.9047,256.2284 233.9047,255.7854 C233.9047,255.3404 233.5437,254.9794 233.0997,254.9794 Z M314.2097,211.3654 L319.2657,213.9434 L318.8117,214.8344 L314.5547,212.6634 C312.5827,215.7244 309.8397,220.7244 310.2177,222.2384 C310.7417,224.3324 312.1837,224.8564 312.1987,224.8624 L338.3757,238.0554 C338.6817,238.2634 339.4367,238.6614 340.0197,238.4724 C340.3917,238.3504 340.6817,237.9884 340.8797,237.3954 L341.8287,237.7134 C341.5227,238.6254 341.0167,239.2004 340.3257,239.4244 C340.1107,239.4944 339.8937,239.5234 339.6837,239.5234 C338.7337,239.5234 337.9027,238.9394 337.8597,238.9094 L312.226133,225.990124 C308.052111,233.242293 308.149518,244.665928 308.1505,244.7818 L307.1505,244.7958 C307.144623,244.308977 307.047597,233.023384 311.332949,225.537195 C310.725558,225.158346 309.695823,224.27289 309.2477,222.4804 C308.6177,219.9614 313.4147,212.5734 313.9637,211.7394 L314.2097,211.3654 Z M233.5978,238.1015 C234.5938,238.1015 235.4028,238.9115 235.4028,239.9075 C235.4028,240.9025 234.5938,241.7115 233.5978,241.7115 C232.6018,241.7115 231.7928,240.9025 231.7928,239.9075 C231.7928,238.9115 232.6018,238.1015 233.5978,238.1015 Z M233.5978,239.1015 C233.1538,239.1015 232.7928,239.4625 232.7928,239.9075 C232.7928,240.3505 233.1538,240.7115 233.5978,240.7115 C234.0418,240.7115 234.4028,240.3505 234.4028,239.9075 C234.4028,239.4625 234.0418,239.1015 233.5978,239.1015 Z M234.0997,222.2235 C235.0957,222.2235 235.9047,223.0335 235.9047,224.0295 C235.9047,225.0245 235.0957,225.8335 234.0997,225.8335 C233.1037,225.8335 232.2947,225.0245 232.2947,224.0295 C232.2947,223.0335 233.1037,222.2235 234.0997,222.2235 Z M234.0997,223.2235 C233.6557,223.2235 233.2947,223.5845 233.2947,224.0295 C233.2947,224.4725 233.6557,224.8335 234.0997,224.8335 C234.5437,224.8335 234.9047,224.4725 234.9047,224.0295 C234.9047,223.5845 234.5437,223.2235 234.0997,223.2235 Z M317.088,217.3808 C318.084,217.3808 318.893,218.1908 318.893,219.1868 C318.893,220.1818 318.084,220.9908 317.088,220.9908 C316.092,220.9908 315.283,220.1818 315.283,219.1868 C315.283,218.1908 316.092,217.3808 317.088,217.3808 Z M317.088,218.3808 C316.644,218.3808 316.283,218.7418 316.283,219.1868 C316.283,219.6298 316.644,219.9908 317.088,219.9908 C317.532,219.9908 317.893,219.6298 317.893,219.1868 C317.893,218.7418 317.532,218.3808 317.088,218.3808 Z M277.1979,180.0921 L277.6169,180.2181 L277.5479,180.6501 C277.5069,180.9101 276.4589,187.0031 269.3409,192.4771 L273.1959,201.3751 L263.1329,210.2411 L262.4719,209.4911 L271.9889,201.1051 L268.1099,192.1521 L268.4259,191.9161 C274.3999,187.4491 276.0819,182.4041 276.4639,180.9221 C269.4449,178.9841 263.0229,181.0251 262.9569,181.0471 L262.6469,180.0951 C262.9319,180.0041 269.6969,177.8461 277.1979,180.0921 Z M223.7634,180.9214 C224.1454,182.4044 225.8274,187.4494 231.8014,191.9164 L232.1174,192.1524 L228.2384,201.1054 L236.9254,208.7584 L236.9254,180.9464 C235.4984,180.5564 229.8554,179.2404 223.7634,180.9214 Z M343.2883,171.1233 C343.5283,171.1653 343.8523,171.3323 344.0353,171.8913 C345.0643,175.0413 340.6543,195.8863 338.4833,198.1323 C338.3853,198.2343 338.2553,198.2853 338.1243,198.2853 C337.9993,198.2853 337.8733,198.2383 337.7763,198.1443 C337.5783,197.9533 337.5733,197.6363 337.7643,197.4373 C339.7613,195.3723 344.2413,173.7913 343.0433,172.0893 C342.8133,172.0123 342.6683,171.7773 342.7103,171.5313 C342.7573,171.2593 343.0193,171.0793 343.2883,171.1233 Z M315.3664,176.8719 C316.6354,177.4559 318.6014,179.6329 320.7594,186.6889 C320.8404,186.9529 320.6914,187.2319 320.4274,187.3139 C320.3794,187.3279 320.3294,187.3349 320.2814,187.3349 C320.0674,187.3349 319.8694,187.1959 319.8034,186.9809 C316.8514,177.3289 314.4934,177.6799 314.4754,177.6829 C314.2214,177.7949 313.9434,177.6719 313.8324,177.4189 C313.7214,177.1649 313.8524,176.8649 314.1064,176.7549 C314.1914,176.7159 314.6564,176.5459 315.3664,176.8719 Z M337.8722,165.6234 C340.8842,166.3214 338.6752,179.2524 337.9262,183.1994 C337.8802,183.4394 337.6702,183.6064 337.4352,183.6064 C337.4042,183.6064 337.3732,183.6034 337.3412,183.5974 C337.0702,183.5454 336.8922,183.2844 336.9432,183.0134 C338.3982,175.3434 339.0282,166.9184 337.6462,166.5974 C337.3772,166.5354 337.2102,166.2664 337.2722,165.9974 C337.3352,165.7284 337.6042,165.5614 337.8722,165.6234 Z M332.1983,161.0265 C335.7223,162.1915 333.8393,179.2195 333.4263,182.6215 C333.3953,182.8735 333.1803,183.0605 332.9303,183.0605 C332.9103,183.0605 332.8893,183.0595 332.8693,183.0565 C332.5953,183.0235 332.4003,182.7745 332.4333,182.4995 C333.4203,174.3785 333.9023,162.6425 331.8843,161.9755 C331.6223,161.8885 331.4793,161.6065 331.5663,161.3435 C331.6533,161.0815 331.9363,160.9375 332.1983,161.0265 Z M326.1261,163.865 C329.5881,165.025 328.7271,179.168 328.5191,181.992 C328.5001,182.255 328.2801,182.455 328.0211,182.455 C328.0091,182.455 327.9961,182.455 327.9841,182.454 C327.7091,182.434 327.5011,182.193 327.5221,181.918 C328.0151,175.22 327.8091,165.483 325.8091,164.812 C325.5461,164.726 325.4051,164.441 325.4931,164.18 C325.5821,163.918 325.8661,163.775 326.1261,163.865 Z" id="Combined-Shape" fill="#000"/>
					</g>
				</g>
				<g id="Hair" transform="translate(104.000000, 285.000000) scale(1 1)">
					<g id="Hair/Grandma Bun" stroke="none" stroke-width="1" fill="none" fill-rule="evenodd">
						<g id="Head" transform="translate(132.000000, 111.000000)">
							<path d="M44.1789,24.3663 C44.5879,35.6913 33.3599,45.0883 22.4569,45.0883 C11.5539,45.0883 0.4939,36.9643 0.0189,25.3903 C-0.4461,14.0673 7.7449,1.3583 15.9329,0.2613 C32.6079,-1.9747 43.6789,10.5083 44.1789,24.3663" id="Fill-1" fill="#000"/>
							<path d="M22.4567,44.088 C12.4757,44.088 1.4787,36.559 1.0177,25.35 C0.5797,14.678 8.3147,2.291 16.0657,1.252 C17.3127,1.085 18.5577,1 19.7657,1 C34.4247,1 42.7697,13.058 43.1797,24.402 C43.3447,28.984 41.4627,33.553 37.8807,37.268 C33.7607,41.538 27.9947,44.088 22.4567,44.088" id="Skin" fill="#f4d4b8"/>
						</g>
						<path d="M139.5209,142.3024 C135.0399,142.1284 133.6239,134.1034 137.0049,134.2774 C140.3859,134.4524 140.2529,137.9414 140.2529,137.9414 L142.5199,137.9414 C140.8639,132.7084 144.9729,121.2864 144.9729,121.2864 C144.9729,121.2864 160.966871,127.1435 172.217871,122.3385 C172.217871,122.3385 177.0289,130.4364 176.1079,137.2574 C176.1079,137.2574 193.9259,118.9374 182.8899,106.4394 C171.8529,93.9424 149.836627,100.860377 149.836627,100.860377 C149.836627,100.860377 151.663196,78.0183645 130.764126,89.8625708 C109.865055,101.706777 133.729826,107.541001 133.729826,107.541001 C133.729826,107.541001 121.569658,112.671575 123.19871,130.027897 C124.601434,144.972868 138.549457,149.739591 138.549457,149.739591 L139.5209,142.3024 Z" id="Hair" fill="#372310"/>
						<path d="M144.502418,121.117147 L144.67264,120.643971 L145.398736,120.906184 L145.724367,121.016125 L146.233288,121.181146 C146.323882,121.209882 146.417324,121.239204 146.51356,121.269068 C147.615455,121.611007 148.852724,121.95318 150.196274,122.272611 C154.861293,123.381726 159.579682,123.942691 163.969585,123.660886 C166.946891,123.469761 169.651464,122.890855 172.021493,121.878679 C172.275446,121.770223 172.569236,121.888171 172.677692,122.142123 C172.786149,122.396075 172.668201,122.689866 172.414248,122.798322 C169.931889,123.858471 167.117606,124.460861 164.033647,124.658832 C159.53118,124.947863 154.718807,124.375724 149.96497,123.245492 C148.598611,122.920638 147.339789,122.572505 146.217183,122.224139 L145.408762,121.965016 L145.281,121.922 L145.089401,122.501071 L145.004188,122.764236 C144.673159,123.794337 144.342038,124.912684 144.033082,126.07928 C143.584193,127.774254 143.221285,129.424728 142.975227,130.974052 C142.539847,133.71546 142.498003,135.968665 142.925234,137.546975 L142.9966,137.790547 L143.202565,138.4414 L139.733477,138.4414 L139.753263,137.922354 C139.76185,137.487916 139.675613,136.889005 139.411608,136.31489 C138.990426,135.398973 138.232017,134.841585 136.979202,134.776739 C135.849196,134.718584 135.328354,136.11404 135.800289,138.040426 C136.299477,140.078058 137.665294,141.620377 139.351638,141.789662 L139.540301,141.802777 L140.091712,141.824188 L139.076943,149.169819 C139.039153,149.443364 138.786768,149.634481 138.513223,149.596692 C138.270073,149.563102 138.092049,149.359954 138.082031,149.123105 L138.08635,149.032973 L138.955,142.743 L138.852481,142.725614 C136.952378,142.347976 135.490594,140.66575 134.891953,138.518794 L134.829011,138.278374 C134.222314,135.801903 135.016385,133.674401 137.030745,133.778068 C138.670649,133.86295 139.749294,134.655695 140.320151,135.897099 C140.545434,136.387008 140.667771,136.878409 140.720975,137.319725 L140.732,137.441 L141.871,137.441 L141.830254,137.248835 C141.520165,135.666081 141.571264,133.644086 141.918953,131.267038 L141.987605,130.817201 C142.239457,129.231395 142.609432,127.548779 143.066408,125.823271 C143.317347,124.875741 143.582564,123.959983 143.850684,123.096131 L144.138828,122.19057 L144.502418,121.117147 Z" id="Hair" fill="#000" fill-rule="nonzero"/>
					</g>
				</g>
				<g id="Expression" transform="translate(201.000000, 388.000000) scale(1 1)">
					<g id="Expression/Super Happy" stroke="none" stroke-width="1" fill="none" fill-rule="evenodd">
						<path d="M58.6213,46.8368 C58.6213,46.8368 62.3003,43.8938 65.2423,46.8368 C65.2423,46.8368 62.3193,48.4838 58.6213,46.8368" id="Tougue" fill="#EC7068"/>
						<path d="M66.1809,45.4442 C65.2939,46.5242 63.8169,47.0722 61.7889,47.0722 C60.0339,47.0722 58.7339,46.5792 57.9269,45.6072 C56.8729,44.3382 56.8919,42.5372 56.9619,41.7392 L67.1399,41.7392 C67.2079,42.5002 67.2149,44.1842 66.1809,45.4442 M67.5779,40.7392 L56.5219,40.7392 C56.2819,40.7392 56.0759,40.9102 56.0309,41.1452 C56.0069,41.2692 55.4699,44.2062 57.1529,46.2402 C58.1589,47.4562 59.7179,48.0722 61.7889,48.0722 C64.1299,48.0722 65.8679,47.4012 66.9529,46.0792 C68.6209,44.0482 68.0919,41.2592 68.0689,41.1412 C68.0229,40.9082 67.8169,40.7392 67.5779,40.7392 M73.0809,30.5642 C71.8679,29.4832 68.9119,28.0932 66.4229,30.5842 C66.2279,30.7792 66.2279,31.0952 66.4229,31.2912 C66.5209,31.3882 66.6489,31.4372 66.7769,31.4372 C66.9049,31.4372 67.0329,31.3882 67.1299,31.2912 C69.5719,28.8552 72.3009,31.2102 72.4159,31.3112 C72.6219,31.4932 72.9389,31.4742 73.1219,31.2682 C73.3049,31.0622 73.2859,30.7472 73.0809,30.5642 M57.3719,31.2912 C57.5679,31.0952 57.5679,30.7792 57.3719,30.5842 C54.8819,28.0932 51.9289,29.4832 50.7149,30.5642 C50.5089,30.7482 50.4919,31.0642 50.6749,31.2702 C50.7739,31.3812 50.9099,31.4372 51.0479,31.4372 C51.1659,31.4372 51.2849,31.3952 51.3809,31.3102 C51.4949,31.2092 54.2129,28.8382 56.6649,31.2912 C56.8609,31.4862 57.1769,31.4862 57.3719,31.2912 M61.7889,31.3972 C62.9419,32.9372 64.8449,35.9742 64.1499,37.4382 C63.8609,38.0482 63.0669,38.3562 61.7889,38.3562 C60.5119,38.3562 59.7179,38.0482 59.4289,37.4382 C58.7339,35.9742 60.6369,32.9372 61.7889,31.3972 M61.7889,39.3562 C63.4869,39.3562 64.5839,38.8552 65.0529,37.8672 C66.2429,35.3592 62.5959,30.7812 62.1759,30.2672 C61.9869,30.0352 61.5919,30.0352 61.4029,30.2672 C60.9829,30.7812 57.3359,35.3592 58.5259,37.8672 C58.9939,38.8552 60.0919,39.3562 61.7889,39.3562 M67.5779,25.0002 C70.1009,25.0002 71.5799,26.4292 71.5949,26.4432 C71.6929,26.5402 71.8199,26.5882 71.9479,26.5882 C72.0759,26.5882 72.2039,26.5392 72.3019,26.4402 C72.4949,26.2452 72.4949,25.9292 72.3009,25.7352 C72.2299,25.6642 70.5319,24.0002 67.5779,24.0002 C67.3019,24.0002 67.0779,24.2232 67.0779,24.5002 C67.0779,24.7762 67.3019,25.0002 67.5779,25.0002 M51.7199,26.5882 C51.8479,26.5882 51.9749,26.5402 52.0729,26.4432 C52.0869,26.4292 53.5669,25.0002 56.0889,25.0002 C56.3659,25.0002 56.5889,24.7762 56.5889,24.5002 C56.5889,24.2232 56.3659,24.0002 56.0889,24.0002 C53.1359,24.0002 51.4379,25.6642 51.3669,25.7352 C51.1719,25.9292 51.1719,26.2452 51.3659,26.4402 C51.4629,26.5392 51.5919,26.5882 51.7199,26.5882" id="Fill-5" fill="#000"/>
						<path d="M52.4996066,34 C54.4327301,34 56,34.8954741 56,36 C56,37.1045259 54.4327301,38 52.4996066,38 C50.5664831,38 49,37.1045259 49,36 C49,34.8954741 50.5664831,34 52.4996066,34 Z M70.5,34 C72.4329063,34 74,34.8954741 74,36 C74,37.1045259 72.4329063,38 70.5,38 C68.5670937,38 67,37.1045259 67,36 C67,34.8954741 68.5670937,34 70.5,34 Z" id="Cheeks" fill="#E2A2B5"/>
					</g>
				</g>
				<g id="Facial Hair" transform="translate(201.000000, 387.000000) scale(1 1)" fill="#000">
					<g id="Facial Hair/None" stroke="none" stroke-width="1" fill="none" fill-rule="evenodd" fill-opacity="0"/>
				</g>
				<g id="Accesories" transform="translate(104.500000, 286.000000) scale(1 1)">
					<g id="Accesories/None" stroke="none" stroke-width="1" fill="none" fill-rule="evenodd" fill-opacity="0"/>
				</g>
			</g>
		</g>
		<g id="Table top" transform="translate(152.000000, 185.000000) scale(1 1)">
			<g id="Table top/Tea Cup" stroke="none" stroke-width="1" fill="none" fill-rule="evenodd">
				<g id="Tea-Cup" transform="translate(72.000000, 116.000000)">
					<path d="M18.4248,39.6089 L15.4658,39.6089 C9.1788,39.6089 3.9128,34.8489 3.2808,28.5939 L0.3958,0.0699 L33.4958,0.0699 L30.6108,28.5939 C29.9778,34.8489 24.7118,39.6089 18.4248,39.6089" id="Cup" fill="#EC7068"/>
					<path d="M31.5225,31.2446 C30.5605,31.2446 29.5285,31.1966 28.4185,31.1146 C28.0865,31.0896 27.8375,30.8016 27.8625,30.4706 C27.8865,30.1386 28.2005,29.8926 28.5065,29.9136 C36.9305,30.5396 40.0665,29.1476 42.0875,19.7136 C43.2185,14.4406 43.0415,10.9136 41.5465,8.9316 C39.7545,6.5536 36.0225,6.2986 31.7005,6.0036 L30.2835,5.9046 C29.9515,5.8806 29.7025,5.5916 29.7265,5.2606 C29.7515,4.9286 30.0605,4.6826 30.3715,4.7036 L31.7815,4.8036 C36.3985,5.1176 40.3845,5.3896 42.5085,8.2066 C44.2495,10.5166 44.4895,14.2536 43.2655,19.9656 C41.3265,29.0136 38.0565,31.2446 31.5225,31.2446" id="Fill-9" fill="#000"/>
					<path d="M28.4629,9.2476 C27.5509,9.2476 26.8129,9.9866 26.8129,10.8986 C26.8129,11.8106 27.5509,12.5506 28.4629,12.5506 C29.3749,12.5506 30.1139,11.8106 30.1139,10.8986 C30.1139,9.9866 29.3749,9.2476 28.4629,9.2476 M8.4889,26.4826 C7.5769,26.4826 6.8379,27.2226 6.8379,28.1346 C6.8379,29.0456 7.5769,29.7846 8.4889,29.7846 C9.4009,29.7846 10.1399,29.0456 10.1399,28.1346 C10.1399,27.2226 9.4009,26.4826 8.4889,26.4826 M20.2469,4.2956 C20.2469,3.3836 19.5079,2.6436 18.5969,2.6436 C17.6849,2.6436 16.9449,3.3836 16.9449,4.2956 C16.9449,5.2066 17.6849,5.9456 18.5969,5.9456 C19.5079,5.9456 20.2469,5.2066 20.2469,4.2956 M22.5429,20.9346 C21.6309,20.9346 20.8919,21.6736 20.8919,22.5846 C20.8919,23.4966 21.6309,24.2356 22.5429,24.2356 C23.4539,24.2356 24.1929,23.4966 24.1929,22.5846 C24.1929,21.6736 23.4539,20.9346 22.5429,20.9346 M20.2469,32.5626 C19.3359,32.5626 18.5969,33.3026 18.5969,34.2146 C18.5969,35.1266 19.3359,35.8656 20.2469,35.8656 C21.1589,35.8656 21.8989,35.1266 21.8989,34.2146 C21.8989,33.3026 21.1589,32.5626 20.2469,32.5626 M13.8049,12.3046 C12.8929,12.3046 12.1529,13.0436 12.1529,13.9556 C12.1529,14.8676 12.8929,15.6056 13.8049,15.6056 C14.7159,15.6056 15.4549,14.8676 15.4549,13.9556 C15.4549,13.0436 14.7159,12.3046 13.8049,12.3046 M5.1869,4.2956 C4.2759,4.2956 3.5359,5.0336 3.5359,5.9456 C3.5359,6.8576 4.2759,7.5976 5.1869,7.5976 C6.0989,7.5976 6.8379,6.8576 6.8379,5.9456 C6.8379,5.0336 6.0989,4.2956 5.1869,4.2956" id="Dots" fill="#F1EFEF"/>
				</g>
			</g>
		</g>
		<g id="Pet" transform="translate(151.254800, 401.770000) scale(1 1)">
			<g id="Pet/Cat" stroke="none" stroke-width="1" fill="none" fill-rule="evenodd">
				<g id="Cat" transform="translate(47.000000, 72.000000)">
					<g>
						<path d="M107.3156,26.6968 C105.7676,19.8878 101.8626,13.0238 93.6096,7.7858 C61.8106,-12.3982 40.8946,15.4808 40.8946,15.4808 L40.8946,15.4818 C37.0586,13.4508 32.4416,12.2638 27.4716,12.2638 C14.1606,12.2638 3.3706,20.7698 3.3706,31.2608 C3.3706,38.6148 7.7496,44.5908 15.5026,47.7478 C14.3166,48.6748 13.3526,50.4918 13.3526,52.0138 C13.3526,54.9748 17.8096,57.3758 23.3066,57.3758 C28.8046,57.3758 33.2616,54.9748 33.2616,52.0138 L33.4806,52.0138 C34.4466,54.6598 38.5596,55.8958 42.9256,54.7768 C45.0496,54.2318 46.8486,53.2238 48.0936,52.0138 L54.2916,52.0138 C54.8736,52.8738 55.8656,53.4148 56.9496,53.4148 L85.6466,53.4148 C99.7166,53.4148 110.4336,40.4178 107.3156,26.6968" id="Cat-Hair" fill="#F1EFEF"/>
						<path d="M107.815455,35.4419 C107.187677,38.4060113 107.858679,40.0182569 105.020461,41.9415658 C105.202461,41.9765658 116.969421,41.4419 107.858679,41.4419 L114.5002,41.4419 C115.5222,41.4419 116.3542,42.2729 116.3542,43.2959 C116.3542,44.2949 115.5722,45.1079 114.5742,45.1479 L96.5712,45.7189 C89.0202,46.0249 81.5172,47.2739 74.2722,49.4329 C72.6852,49.9059 71.7812,51.5769 72.2542,53.1649 C72.6422,54.4659 73.8352,55.3089 75.1282,55.3089 C75.4112,55.3089 75.7002,55.2679 75.9852,55.1829 C82.7532,53.1669 89.7612,51.9999 96.8142,51.7139 L114.8172,51.1429 C119.0432,50.9719 122.3542,47.5249 122.3542,43.2959 C122.3542,38.9649 118.8302,35.4419 114.5002,35.4419 L107.815455,35.4419 Z" id="Fill-5" fill="#000"/>
						<path d="M34.0158,35.2671 C33.4808,35.2671 32.9438,35.2051 32.4118,35.0781 C32.1418,35.0141 31.9758,34.7451 32.0398,34.4761 C32.1038,34.2061 32.3768,34.0351 32.6418,34.1051 C33.8678,34.3961 35.1198,34.2931 36.2708,33.8111 C37.4208,33.3271 38.3708,32.5021 39.0198,31.4261 C39.1638,31.1891 39.4728,31.1171 39.7058,31.2551 C39.9428,31.3981 40.0188,31.7051 39.8768,31.9421 C39.1188,33.2011 38.0048,34.1651 36.6588,34.7331 C35.8118,35.0881 34.9178,35.2671 34.0158,35.2671" id="Fill-3" fill="#000"/>
						<path d="M47.9143,33.5542 L34.9083,40.2442 C34.6623,40.3702 34.5653,40.6722 34.6923,40.9172 C34.7813,41.0902 34.9563,41.1892 35.1373,41.1892 C35.2143,41.1892 35.2923,41.1712 35.3653,41.1332 L48.3713,34.4432 C48.6173,34.3172 48.7143,34.0152 48.5873,33.7702 C48.4603,33.5242 48.1603,33.4272 47.9143,33.5542" id="Fill-8" fill="#000"/>
						<path d="M49.716,25.0835 C50.593,27.0165 51.074,29.0955 51.074,31.2615 C51.074,33.3775 50.612,35.4095 49.774,37.3055 C49.772,37.2975 49.774,37.2895 49.771,37.2815 C49.684,37.0205 49.402,36.8765 49.138,36.9675 L35.431,41.5665 C35.169,41.6545 35.028,41.9375 35.116,42.1995 C35.186,42.4085 35.381,42.5405 35.59,42.5405 C35.643,42.5405 35.696,42.5325 35.749,42.5145 L49.456,37.9145 C49.474,37.9085 49.486,37.8965 49.502,37.8885 C49.004,38.9005 48.4,39.8725 47.693,40.7905 L35.868,42.6025 C35.596,42.6445 35.408,42.8985 35.45,43.1725 C35.488,43.4195 35.701,43.5965 35.944,43.5965 C35.969,43.5965 35.994,43.5945 36.021,43.5905 L46.715,41.9515 C46.082,42.6485 45.391,43.3095 44.646,43.9305 C44.404,44.1315 44.158,44.3265 43.907,44.5185 C43.764,44.6275 43.619,44.7365 43.472,44.8445 C43.192,45.0475 42.905,45.2435 42.614,45.4355 C42.414,45.5665 42.21,45.6935 42.004,45.8195 C41.792,45.9505 41.577,46.0795 41.36,46.2045 C41.165,46.3155 40.97,46.4265 40.771,46.5325 C40.522,46.6665 40.267,46.7945 40.011,46.9205 C39.732,47.0595 39.448,47.1915 39.161,47.3195 C38.932,47.4235 38.701,47.5245 38.467,47.6215 C38.265,47.7055 38.061,47.7875 37.855,47.8675 C37.518,47.9965 37.178,48.1205 36.833,48.2375 C36.642,48.3025 36.449,48.3635 36.256,48.4245 C35.924,48.5285 35.59,48.6285 35.251,48.7215 C35.091,48.7655 34.931,48.8085 34.769,48.8495 C34.306,48.9675 33.84,49.0785 33.366,49.1745 C32.89,49.2705 32.404,49.3525 31.916,49.4245 C30.54,49.6305 29.156,49.7375 27.78,49.7525 C27.75,49.7525 27.719,49.7535 27.689,49.7545 C27.025,49.7585 26.363,49.7395 25.705,49.7015 C25.65,49.6975 25.594,49.6945 25.539,49.6905 C24.874,49.6485 24.214,49.5855 23.559,49.4995 C23.543,49.4975 23.527,49.4945 23.51,49.4925 C23.215,49.4535 22.926,49.3935 22.633,49.3455 L27.332,46.8055 C27.295,46.8535 27.263,46.9065 27.244,46.9685 C27.162,47.2315 27.311,47.5125 27.574,47.5935 C27.913,47.6975 28.278,47.7505 28.652,47.7505 C29.077,47.7505 29.517,47.6825 29.945,47.5475 C30.784,47.2825 31.502,46.7895 31.966,46.1585 C32.13,45.9365 32.241,45.7035 32.33,45.4695 C32.832,45.8115 33.483,46.0055 34.193,46.0055 C34.608,46.0055 35.041,45.9405 35.474,45.8045 C36.278,45.5515 36.978,45.0825 37.444,44.4845 C37.613,44.2665 37.574,43.9525 37.357,43.7825 C37.137,43.6125 36.824,43.6515 36.654,43.8695 C36.313,44.3095 35.786,44.6575 35.173,44.8515 C33.934,45.2385 32.662,44.8625 32.4,44.0285 L31.44,40.9835 C31.357,40.7215 31.076,40.5755 30.813,40.6575 C30.549,40.7405 30.404,41.0215 30.487,41.2845 L31.445,44.3275 C31.567,44.7115 31.465,45.1505 31.16,45.5655 C30.82,46.0275 30.282,46.3935 29.645,46.5945 C29.031,46.7855 28.402,46.8025 27.869,46.6385 C27.806,46.6175 27.742,46.6125 27.68,46.6175 L28.8,46.0125 C29.043,45.8815 29.134,45.5775 29.002,45.3355 C28.871,45.0915 28.566,45.0015 28.325,45.1335 L21.075,49.0515 C20.176,48.8525 19.295,48.6065 18.431,48.3245 L28.367,44.9905 C28.629,44.9025 28.77,44.6195 28.682,44.3575 C28.595,44.0965 28.311,43.9525 28.049,44.0435 L16.912,47.7805 C16.547,47.6375 16.179,47.4975 15.823,47.3385 C15.421,47.1585 15.05,46.9445 14.662,46.7485 C16.439,46.6995 18.95,46.0725 21.39,44.7805 L27.841,43.6575 C28.112,43.6105 28.295,43.3525 28.247,43.0795 C28.2,42.8065 27.934,42.6185 27.669,42.6735 L23.618,43.3785 C26.361,41.3455 28.641,38.3415 29.094,34.2145 C30.053,25.4945 46.462,25.0035 49.716,25.0835 M23.307,56.8755 C18.182,56.8755 13.853,54.6485 13.853,52.0145 C13.853,51.0515 14.058,50.2595 14.428,49.5935 C14.454,49.5985 14.475,49.6165 14.501,49.6165 C14.554,49.6165 14.608,49.6085 14.66,49.5905 L16.865,48.8505 C16.985,48.8955 17.108,48.9375 17.229,48.9805 C17.353,49.0255 17.476,49.0705 17.6,49.1135 C18.155,49.3085 18.721,49.4855 19.296,49.6465 C19.365,49.6665 19.434,49.6845 19.503,49.7025 C19.585,49.7255 19.666,49.7465 19.748,49.7685 L15.242,52.2035 C14.999,52.3345 14.908,52.6385 15.04,52.8805 C15.13,53.0485 15.302,53.1435 15.48,53.1435 C15.561,53.1435 15.642,53.1235 15.717,53.0825 L21.207,50.1155 C21.928,50.2665 22.661,50.3895 23.406,50.4865 L23.447,50.4925 C24.104,50.5785 24.769,50.6435 25.441,50.6865 C25.496,50.6895 25.551,50.6925 25.607,50.6965 C26.223,50.7325 26.844,50.7585 27.472,50.7585 C28.229,50.7585 28.977,50.7275 29.716,50.6735 C29.731,50.6725 29.745,50.6725 29.76,50.6715 C30.438,50.6215 31.107,50.5475 31.769,50.4545 C31.801,50.4495 31.834,50.4485 31.867,50.4435 C32.461,50.9775 32.762,51.5055 32.762,52.0145 C32.762,54.6485 28.432,56.8755 23.307,56.8755 M16.627,40.8665 C16.666,40.7015 16.768,40.5625 16.911,40.4765 C17.053,40.3895 17.221,40.3665 17.383,40.4045 C18.577,40.6885 19.806,40.5895 20.93,40.1165 C22.058,39.6425 22.988,38.8355 23.621,37.7835 C23.705,37.6415 23.843,37.5395 24.006,37.4985 C24.171,37.4615 24.338,37.4835 24.483,37.5725 C24.774,37.7485 24.869,38.1335 24.692,38.4285 C23.921,39.7095 22.787,40.6915 21.414,41.2695 C20.554,41.6305 19.649,41.8125 18.724,41.8125 C18.177,41.8125 17.627,41.7485 17.09,41.6205 C16.927,41.5815 16.789,41.4805 16.701,41.3385 C16.614,41.1955 16.588,41.0285 16.627,40.8665 M107.803,26.5855 C105.973,18.5335 101.287,12.0665 93.877,7.3635 C69.563,-8.0705 51.364,4.4795 44.036,11.3855 C42.405,11.6615 40.466,12.8585 38.905,14.0165 C35.487,12.5855 31.601,11.7645 27.472,11.7645 C14.351,11.7645 3.598,19.9465 2.907,30.2115 C1.351,30.7685 0.137,31.6005 0.012,32.8535 C-0.18,34.7635 2.06,36.5335 4.313,37.8185 C6.207,42.0055 9.852,45.5355 14.554,47.8455 C13.429,48.8285 12.853,50.2245 12.853,52.0145 C12.853,55.3015 17.445,57.8755 23.307,57.8755 C28.456,57.8755 32.624,55.8885 33.562,53.1775 C34.722,54.7525 37.041,55.6845 39.773,55.6845 C40.822,55.6845 41.93,55.5485 43.05,55.2615 C47.852,54.0295 51.106,50.4805 50.303,47.3515 C50.235,47.0835 49.959,46.9205 49.695,46.9905 C49.427,47.0595 49.266,47.3315 49.334,47.5995 C50,50.1945 47.07,53.1975 42.802,54.2925 C38.535,55.3895 34.521,54.1645 33.855,51.5685 C33.736,51.1035 33.736,50.6075 33.854,50.0955 C33.975,50.0685 34.093,50.0355 34.214,50.0085 C34.526,49.9375 34.835,49.8625 35.141,49.7835 C35.355,49.7285 35.568,49.6725 35.778,49.6115 C36.047,49.5355 36.312,49.4525 36.575,49.3685 C36.984,49.2395 37.387,49.1025 37.785,48.9555 C37.94,48.8985 38.094,48.8445 38.247,48.7845 C38.539,48.6715 38.828,48.5545 39.114,48.4325 C39.2,48.3955 39.284,48.3565 39.368,48.3195 C40.33,47.8975 41.255,47.4265 42.139,46.9045 L42.256,46.8345 C43.144,46.3045 43.987,45.7255 44.784,45.0985 C44.843,45.0525 44.901,45.0065 44.959,44.9595 C45.15,44.8065 45.348,44.6595 45.532,44.5015 C45.55,44.4855 45.559,44.4655 45.574,44.4475 C46.553,43.6045 47.436,42.6915 48.217,41.7225 L50.721,41.3385 C50.993,41.2965 51.181,41.0415 51.139,40.7685 C51.097,40.4955 50.847,40.3125 50.569,40.3505 L49.078,40.5785 C50.987,37.8095 52.074,34.6335 52.074,31.2615 C52.074,26.5505 49.945,22.2315 46.421,18.8585 C47.246,16.2695 47.789,13.1685 46.241,11.8455 C46,11.6385 45.725,11.5025 45.427,11.4205 C46.251,10.6685 47.195,9.8675 48.248,9.0555 C48.985,9.5445 49.852,9.8505 50.803,9.8505 C53.399,9.8505 55.502,7.7465 55.502,5.1505 C55.502,4.9495 55.485,4.7535 55.457,4.5605 C55.487,4.5455 55.515,4.5295 55.545,4.5155 C55.733,4.4245 55.926,4.3355 56.118,4.2465 C58.344,6.9795 62.388,8.8205 67.038,8.8205 C67.362,8.8205 67.683,8.8075 68.001,8.7895 C60.427,11.5905 55.002,18.8635 55.002,27.3995 C55.002,33.6055 57.871,39.3715 62.741,43.1235 L61.531,43.1235 C57.264,43.1235 53.791,46.5965 53.791,50.8645 L53.791,52.0145 C53.791,52.0305 53.799,52.0455 53.801,52.0615 C53.804,52.0945 53.811,52.1255 53.82,52.1575 C53.83,52.1905 53.843,52.2215 53.86,52.2515 C53.867,52.2665 53.868,52.2805 53.877,52.2945 C53.891,52.3145 53.91,52.3285 53.925,52.3495 C53.933,52.3575 53.939,52.3655 53.946,52.3735 C54.64,53.3355 55.749,53.9145 56.949,53.9145 L70.481,53.9145 C70.757,53.9145 70.981,53.6905 70.981,53.4145 C70.981,53.1385 70.757,52.9145 70.481,52.9145 L56.949,52.9145 C56.09,52.9145 55.299,52.5065 54.791,51.8325 L54.791,50.8645 C54.791,47.1475 57.815,44.1235 61.531,44.1235 L64.293,44.1235 C64.296,44.1235 64.298,44.1255 64.3,44.1255 C64.303,44.1255 64.305,44.1235 64.308,44.1235 L68.035,44.1235 C68.312,44.1235 68.535,43.8995 68.535,43.6235 C68.535,43.3475 68.312,43.1235 68.035,43.1235 L64.454,43.1235 C59.16,39.6135 56.002,33.7485 56.002,27.3995 C56.002,17.0035 64.461,8.5445 74.858,8.5445 C78.545,8.5445 82.116,9.6075 85.185,11.6205 C85.415,11.7705 85.725,11.7085 85.877,11.4775 C86.029,11.2455 85.964,10.9365 85.734,10.7845 C82.501,8.6645 78.74,7.5445 74.858,7.5445 C74.321,7.5445 73.795,7.5825 73.27,7.6255 C76.16,6.4305 78.342,4.4275 79.275,2.0365 C79.633,2.1235 79.993,2.2135 80.357,2.3125 C79.993,2.7625 79.786,3.2685 79.786,3.8055 C79.786,5.6565 82.202,7.1585 85.184,7.1585 C86.877,7.1585 88.376,6.6685 89.363,5.9095 C90.369,6.4365 91.388,7.0135 92.418,7.6415 C92.057,7.5685 91.678,7.5195 91.278,7.5195 C89.205,7.5195 87.526,8.5625 87.526,9.8505 C87.526,11.1385 89.205,12.1815 91.278,12.1815 C93.35,12.1815 95.03,11.1385 95.03,9.8505 C95.03,9.6425 94.972,9.4435 94.889,9.2515 C101.173,13.7025 105.189,19.5995 106.828,26.8075 C106.881,27.0395 107.087,27.1965 107.316,27.1965 C107.352,27.1965 107.389,27.1925 107.426,27.1845 C107.695,27.1235 107.864,26.8545 107.803,26.5855" id="Cat-Spots" fill="#000"/>
						<path d="M32.2316,39.3374 L28.8946,40.3894 C28.2226,40.6014 28.1426,41.5184 28.7666,41.8434 L30.9606,42.9854 C31.3476,43.1874 31.8256,43.0364 32.0266,42.6504 L33.1686,40.4554 C33.4946,39.8314 32.9026,39.1264 32.2316,39.3374 M1.9816,34.4624 C3.3016,36.2334 6.7046,37.6244 7.7506,38.0204 C7.7476,36.7084 7.8896,35.3604 8.1776,34.0044 C5.7916,33.0934 2.9106,34.0524 1.9816,34.4624 M46.0656,13.5764 C45.1146,13.9324 42.3836,15.2604 41.3136,17.5804 C42.4676,18.3494 43.5116,19.2124 44.4256,20.1524 C44.8976,19.1394 46.3596,15.7674 46.0656,13.5764" id="Fill-12" fill="#E2A2B5"/>
					</g>
				</g>
			</g>
		</g>
	</g>
</svg>