<svg xmlns="http://www.w3.org/2000/svg" xmlns:xlink="http://www.w3.org/1999/xlink" viewBox="0 0 240 64" fill="none" stroke="none" stroke-linecap="square" stroke-miterlimit="10" xmlns:v="https://vecta.io/nano">
	<style><![CDATA[.B{fill-rule:evenodd}.C{stroke-linejoin:round}.D{stroke-width:8}.E{fill:#274e13}.F{stroke:purple}.G{fill:purple}.H{stroke:#38761d}]]></style>
	<clipPath id="A">
		<path d="M0 0h960v600H0V0z"/>
	</clipPath>
	<g clip-path="url(#A)">
		<g class="B">
			<path fill="#000" fill-opacity="0" d="M0 0h960v600H0z"/>
			<use xlink:href="#C" class="G"/>
		</g>
		<use xlink:href="#C" class="C D F"/>
		<use xlink:href="#D" class="B E"/>
		<use xlink:href="#D" class="C D F"/>
		<use xlink:href="#E" class="B G"/>
		<use xlink:href="#E" class="C D F"/>
		<use xlink:href="#F" class="B G"/>
		<use xlink:href="#F" class="C D F"/>
		<use xlink:href="#G" class="B G"/>
		<use xlink:href="#G" class="C D F"/>
		<use xlink:href="#H" class="B E"/>
		<use xlink:href="#H" class="C H"/>
		<path d="M321.059 343.748h0c0-2.653 2.15-4.803 4.803-4.803h0c1.274 0 2.496.506 3.396 1.407s1.407 2.122 1.407 3.396h0c0 2.653-2.15 4.803-4.803 4.803h0c-2.653 0-4.803-2.15-4.803-4.803z" class="B E"/>
		<path d="M321.059 343.748h0c0-2.653 2.15-4.803 4.803-4.803h0c1.274 0 2.496.506 3.396 1.407s1.407 2.122 1.407 3.396h0c0 2.653-2.15 4.803-4.803 4.803h0c-2.653 0-4.803-2.15-4.803-4.803z" class="C H"/>
		<path d="M321.059 343.748h0c0-2.653 2.15-4.803 4.803-4.803h0c1.274 0 2.496.506 3.396 1.407s1.407 2.122 1.407 3.396h0c0 2.653-2.15 4.803-4.803 4.803h0c-2.653 0-4.803-2.15-4.803-4.803z" class="B E"/>
		<path d="M321.059 343.748h0c0-2.653 2.15-4.803 4.803-4.803h0c1.274 0 2.496.506 3.396 1.407s1.407 2.122 1.407 3.396h0c0 2.653-2.15 4.803-4.803 4.803h0c-2.653 0-4.803-2.15-4.803-4.803z" class="C H"/>
		<use xlink:href="#I" class="B E"/>
		<use xlink:href="#I" stroke="#274e13" class="C D"/>
		<use xlink:href="#J" class="B E"/>
		<use xlink:href="#J" stroke="#274e13" class="C D"/>
		<path fill="#000" fill-opacity="0" d="M0 0h314.961v35.496H0z" class="B"/>
	</g>
	<defs >
		<path id="C" d="M376.388 329.583c5.793 0 11.034 1.815 15.724 5.444 4.69 3.615 8.423 8.712 11.2 15.292 2.777 6.565 4.165 14.245 4.165 23.038 0 7.156-1.123 13.367-3.368 18.634-2.245 5.252-5.348 9.332-9.307 12.238-3.959 2.892-8.549 4.338-13.771 4.338-5.872 0-11.18-1.807-15.923-5.422-4.73-3.629-8.503-8.749-11.32-15.359-2.817-6.624-4.225-14.333-4.225-23.127 0-7.17 1.143-13.382 3.428-18.634s5.447-9.302 9.486-12.15c4.039-2.862 8.676-4.293 13.91-4.293zm2.073-6.661c-5.872 0-11.28 1.158-16.222 3.475-4.942 2.302-9.254 5.518-12.934 9.649-3.667 4.116-6.523 8.985-8.569 14.606-2.033 5.621-3.049 11.781-3.049 18.479 0 8.528 1.634 16.148 4.902 22.861 3.268 6.698 7.712 12.113 13.332 16.244 5.633 4.116 12.083 6.447 19.351 6.993 6.045 5.444 11.266 9.524 15.664 12.238 4.411 2.729 8.33 4.544 11.758 5.444 3.441.9 6.749 1.35 9.924 1.35 3.109 0 5.965-.339 8.569-1.018 2.617-.679 4.863-1.556 6.736-2.634v-2.191c-.89.369-1.993.664-3.308.885-1.302.236-2.81.354-4.524.354-2.697 0-5.474-.502-8.33-1.505s-5.999-2.685-9.426-5.046c-3.428-2.346-7.467-5.511-12.117-9.494a37.87 37.87 0 0 0 15.226-9.051c4.371-4.22 7.779-9.339 10.223-15.359 2.458-6.034 3.687-12.725 3.687-20.072 0-6.698-1.023-12.858-3.069-18.479-2.033-5.621-4.889-10.49-8.569-14.606a39.1 39.1 0 0 0-12.974-9.649c-4.982-2.316-10.409-3.475-16.282-3.475z"/>
		<path id="D" d="M660.234 324.902c-4.985 0-9.796 1.048-14.434 3.145-4.614 2.077-8.417 4.863-11.408 8.357-2.991 3.475-4.487 7.356-4.487 11.643 0 5.798 1.959 10.293 5.878 13.485s9.507 6.119 16.764 8.782l12.903 4.986c3.64 1.435 6.458 3.088 8.452 4.958 1.994 1.851 2.991 4.457 2.991 7.819 0 3.834-1.6 6.856-4.8 9.065-3.2 2.191-7.652 3.286-13.356 3.286-9.97 0-17.158-3.192-21.563-9.575l-6.852-9.575h-2.991v19.519c4.985 2.077 9.901 3.579 14.747 4.504s10.619 1.388 17.32 1.388c4.684 0 9.518-.897 14.503-2.691 5.008-1.794 9.217-4.457 12.625-7.989 3.408-3.551 5.113-7.876 5.113-12.975 0-5.458-1.322-9.66-3.965-12.607-2.62-2.965-5.959-5.26-10.017-6.884l-12.069-4.873c-6.701-2.55-11.802-4.844-15.303-6.884-3.478-2.04-5.217-5.024-5.217-8.952 0-3.494 1.461-6.223 4.382-8.187 2.922-1.983 6.805-2.975 11.651-2.975 3.269 0 6.33.699 9.182 2.096s5.484 3.664 7.895 6.799l7.06 9.207h2.991v-18.952c-4.545-1.87-9.031-3.324-13.46-4.363-4.405-1.039-9.251-1.558-14.538-1.558z"/>
		<path id="E" d="M414.669 330.392v2.481l9.646 4.761v45.582c0 5.947 1.911 10.433 5.733 13.457 3.839 3.024 8.766 4.536 14.781 4.536 4.287 0 8.242-.894 11.865-2.681 3.639-1.804 7.395-4.653 11.266-8.545h.773v9.698h23.131v-2.456l-10.892-4.46v-62.372h-23.106v2.481l10.868 4.761v46.81c-1.944 1.737-4.578 3.074-7.901 4.009-3.307.919-6.339 1.378-9.098 1.378-4.487 0-8.134-1.178-10.942-3.533-2.808-2.372-4.212-5.814-4.212-10.324v-45.582z"/>
		<path id="F" d="M529.026 366.103v22.274c-2.687 1.307-5.088 2.214-7.206 2.72-2.102.506-4.227.76-6.373.76-6.731 0-10.096-3.112-10.096-9.336 0-2.32.489-4.427 1.467-6.322.993-1.911 3.146-3.692 6.461-5.342 3.329-1.666 8.578-3.251 15.747-4.754zm-8.607-35.678c-3.139 0-6.081.604-8.826 1.813-2.73 1.193-5.351 2.695-7.863 4.509-2.424 1.699-4.22 3.708-5.388 6.028-1.153 2.303-1.73 4.558-1.73 6.763 0 1.813.241 2.973.723 3.48.496.49 1.416.735 2.76.735h7.008l.679-.76v-4.215c0-3.414.672-6.142 2.015-8.184 1.343-2.058 3.716-3.088 7.118-3.088 3.139 0 5.943 1.233 8.41 3.7 2.468 2.45 3.701 5.375 3.701 8.772v11.002l-12.768 3.308c-7.724 2.009-13.221 4.819-16.492 8.429s-4.906 7.874-4.906 12.791c0 4.934 1.387 8.781 4.161 11.541 2.789 2.744 6.286 4.117 10.491 4.117 3.782 0 7.395-.849 10.841-2.548 3.46-1.699 6.351-3.855 8.673-6.469h.81c.715 2.712 1.949 4.893 3.701 6.543s4.015 2.475 6.789 2.475c3.052 0 5.629-.825 7.731-2.475 2.117-1.65 3.716-3.578 4.796-5.783v-.466l-.416-.294h-5.103c-2.059 0-3.672-.253-4.84-.76s-2.066-1.111-2.694-1.813v-42.76c0-4.215-.942-7.498-2.825-9.851s-4.329-4.027-7.337-5.023c-3.008-1.013-6.081-1.519-9.22-1.519z"/>
		<path id="G" d="M588.454 337.297c2.761 0 5.258.555 7.491 1.666 2.249 1.093 4.521 2.742 6.816 4.946v44.078c-2.295 1.572-4.661 2.759-7.096 3.562-2.419.786-4.777 1.179-7.072 1.179-5.8 0-10.802-1.965-15.005-5.894-4.187-3.947-6.281-10.276-6.281-18.99 0-7.346.977-13.249 2.931-17.708 1.954-4.476 4.521-7.731 7.7-9.764 3.195-2.05 6.7-3.075 10.515-3.075zm24.869-53.381l-19.867 8.662v1.102l9.306 8.175v29.138c-1.628-.427-3.443-.769-5.444-1.025s-4.335-.384-7.002-.384c-6.188 0-11.903 1.632-17.146 4.895-5.242 3.246-9.437 7.996-12.586 14.249-3.148 6.236-4.723 13.813-4.723 22.731 0 6.612 1.07 12.309 3.21 17.093 2.156 4.767 5.11 8.465 8.864 11.096 3.769 2.614 8.034 3.921 12.795 3.921 3.815 0 7.413-.76 10.794-2.281s6.886-3.955 10.515-7.304h1l1.14 8.021h20.147v-2.511l-10.143-4.562V283.916z"/>
		<path id="H" d="M311.453 323.304h0c0-2.653 2.15-4.803 4.803-4.803h0c1.274 0 2.496.506 3.396 1.407s1.407 2.122 1.407 3.396h0c0 2.653-2.15 4.803-4.803 4.803h0c-2.653 0-4.803-2.15-4.803-4.803z"/>
		<path id="I" d="M257.882 291.82c-9.887 2.607-18.141 7.434-24.763 14.481-6.604 7.015-11.079 15.523-13.424 25.523-2.327 9.969-1.988 20.652 1.018 32.05 3.894 14.768 11.289 25.525 22.185 32.272 10.889 6.722 23.718 8.136 38.486 4.242 9.292-2.45 16.774-6.941 22.446-13.472 5.697-6.537 9.426-13.55 11.188-21.038l-.598-2.267-.669.176c-9.667 9.069-18.688 14.707-27.063 16.916-10.035 2.646-18.447 2.705-25.236.175-6.764-2.536-12.213-6.717-16.347-12.544s-7.164-12.395-9.092-19.705c-3.13-11.869-3.176-21.742-.138-29.619 3.056-7.908 8.771-12.967 17.147-15.175 5.005-1.32 9.469-1.477 13.392-.47 3.947 1 7.463 2.723 10.546 5.17l10.532 8.433 1.598-.421 6.739-9.569c1.577-2.059 2.085-4.154 1.523-6.285-.438-1.66-2.253-3.62-5.446-5.878-3.93-2.541-9.065-4.076-15.406-4.604-6.316-.534-12.521.002-18.617 1.61z"/>
		<path id="J" d="M302.467 298.752c4.555-1.767 8.917-1.524 13.086.728 4.176 2.229 7.953 5.737 11.329 10.525 3.391 4.782 6.197 10.034 8.417 15.757 1.81 4.666 2.996 9.352 3.558 14.056.555 4.687.171 8.847-1.151 12.48-1.314 3.609-3.796 6.122-7.447 7.538-4.555 1.767-8.943 1.545-13.164-.667-4.228-2.229-8.052-5.729-11.473-10.5s-6.242-10.017-8.461-15.74c-1.851-4.772-3.022-9.484-3.511-14.135-.497-4.669-.088-8.808 1.226-12.418 1.322-3.633 3.853-6.174 7.592-7.625zm-.996-7.453c-6.024 2.337-10.64 6.062-13.846 11.175-3.213 5.095-4.96 11-5.241 17.713-.288 6.695.975 13.671 3.79 20.925 2.807 7.237 6.578 13.239 11.313 18.007s10.006 7.949 15.815 9.545 11.725 1.225 17.749-1.112c6.009-2.331 10.621-6.044 13.834-11.14 3.228-5.101 4.982-11.008 5.263-17.721s-.982-13.688-3.79-20.925c-2.814-7.255-6.585-13.257-11.313-18.007-4.734-4.768-10.013-7.946-15.837-9.536-5.815-1.613-11.728-1.255-17.737 1.077z"/>
	</defs>
</svg>