<svg viewBox="0 0 960 600" fill="none" stroke-linecap="square" stroke-miterlimit="10" xmlns="http://www.w3.org/2000/svg">
	<clipPath id="a">
		<path d="M0 0h960v600H0z"/>
	</clipPath>
	<g clip-path="url(#a)">
		<path d="M0 0h960v600H0z"/>
		<path fill="purple" d="M376.388 329.583q8.689 0 15.724 5.444 7.035 5.423 11.2 15.293 4.164 9.847 4.165 23.038 0 10.733-3.368 18.634-3.369 7.878-9.307 12.238-5.94 4.338-13.77 4.338-8.809 0-15.924-5.423-7.095-5.443-11.32-15.358-4.224-9.937-4.224-23.127 0-10.755 3.427-18.634 3.429-7.878 9.486-12.15 6.06-4.293 13.91-4.293m2.072-6.661q-8.809 0-16.222 3.474-7.413 3.452-12.933 9.65-5.5 6.173-8.57 14.606-3.05 8.43-3.049 18.479 0 12.791 4.903 22.86 4.902 10.048 13.332 16.245 8.45 6.174 19.35 6.993 9.068 8.166 15.665 12.238 6.616 4.094 11.758 5.444 5.16 1.35 9.924 1.35 4.665 0 8.57-1.018 3.926-1.018 6.735-2.633v-2.191q-1.334.554-3.308.885-1.953.354-4.524.354-4.045 0-8.33-1.505-4.284-1.505-9.426-5.046-5.142-3.519-12.117-9.494 8.69-2.722 15.226-9.051 6.556-6.33 10.223-15.359 3.687-9.051 3.687-20.072 0-10.048-3.069-18.48-3.05-8.431-8.57-14.606-5.499-6.195-12.973-9.649-7.474-3.474-16.282-3.474" fill-rule="evenodd"/>
		<path stroke="purple" stroke-width="8" stroke-linejoin="round" stroke-linecap="butt" d="M376.388 329.583q8.689 0 15.724 5.444 7.035 5.423 11.2 15.293 4.164 9.847 4.165 23.038 0 10.733-3.368 18.634-3.369 7.878-9.307 12.238-5.94 4.338-13.77 4.338-8.809 0-15.924-5.423-7.095-5.443-11.32-15.358-4.224-9.937-4.224-23.127 0-10.755 3.427-18.634 3.429-7.878 9.486-12.15 6.06-4.293 13.91-4.293zm2.072-6.661q-8.809 0-16.222 3.474-7.413 3.452-12.933 9.65-5.5 6.173-8.57 14.606-3.05 8.43-3.049 18.479 0 12.791 4.903 22.86 4.902 10.048 13.332 16.245 8.45 6.174 19.35 6.993 9.068 8.166 15.665 12.238 6.616 4.094 11.758 5.444 5.16 1.35 9.924 1.35 4.665 0 8.57-1.018 3.926-1.018 6.735-2.633v-2.191q-1.334.554-3.308.885-1.953.354-4.524.354-4.045 0-8.33-1.505-4.284-1.505-9.426-5.046-5.142-3.519-12.117-9.494 8.69-2.722 15.226-9.051 6.556-6.33 10.223-15.359 3.687-9.051 3.687-20.072 0-10.048-3.069-18.48-3.05-8.431-8.57-14.606-5.499-6.195-12.973-9.649-7.474-3.474-16.282-3.474z"/>
		<path fill="#274e13" d="M660.234 324.902q-7.479 0-14.434 3.144-6.921 3.116-11.408 8.357-4.486 5.213-4.486 11.644 0 8.697 5.877 13.484 5.878 4.788 16.764 8.783a601 601 0 0 1 12.904 4.985q5.46 2.154 8.451 4.958 2.991 2.776 2.991 7.819 0 5.751-4.8 9.065-4.8 3.287-13.355 3.287-14.955 0-21.563-9.576l-6.852-9.575h-2.991v19.519q7.477 3.116 14.747 4.504t17.32 1.388q7.026 0 14.503-2.691 7.513-2.691 12.625-7.989 5.113-5.325 5.113-12.975 0-8.187-3.965-12.606-3.93-4.448-10.017-6.884t-12.068-4.873q-10.052-3.824-15.303-6.884-5.217-3.06-5.217-8.952 0-5.241 4.382-8.187 4.382-2.975 11.651-2.975 4.905 0 9.182 2.097t7.895 6.799l7.06 9.207h2.991v-18.952q-6.815-2.805-13.46-4.363-6.607-1.558-14.537-1.558" fill-rule="evenodd"/>
		<path stroke="purple" stroke-width="8" stroke-linejoin="round" stroke-linecap="butt" d="M660.234 324.902q-7.479 0-14.434 3.144-6.921 3.116-11.408 8.357-4.486 5.213-4.486 11.644 0 8.697 5.877 13.484 5.878 4.788 16.764 8.783a601 601 0 0 1 12.904 4.985q5.46 2.154 8.451 4.958 2.991 2.776 2.991 7.819 0 5.751-4.8 9.065-4.8 3.287-13.355 3.287-14.955 0-21.563-9.576l-6.852-9.575h-2.991v19.519q7.477 3.116 14.747 4.504t17.32 1.388q7.026 0 14.503-2.691 7.513-2.691 12.625-7.989 5.113-5.325 5.113-12.975 0-8.187-3.965-12.606-3.93-4.448-10.017-6.884t-12.068-4.873q-10.052-3.824-15.303-6.884-5.217-3.06-5.217-8.952 0-5.241 4.382-8.187 4.382-2.975 11.651-2.975 4.905 0 9.182 2.097t7.895 6.799l7.06 9.207h2.991v-18.952q-6.815-2.805-13.46-4.363-6.607-1.558-14.537-1.558z"/>
		<path fill="purple" d="M414.67 330.392v2.481l9.645 4.761v45.583q0 8.921 5.733 13.456 5.759 4.536 14.781 4.536 6.43 0 11.865-2.681 5.458-2.707 11.266-8.545h.773v9.697h23.13v-2.455l-10.892-4.46v-62.373h-23.106v2.481l10.868 4.761v46.81q-2.916 2.607-7.902 4.01-4.96 1.378-9.098 1.378-6.73 0-10.942-3.533-4.212-3.558-4.212-10.324v-45.583z" fill-rule="evenodd"/>
		<path stroke="purple" stroke-width="8" stroke-linejoin="round" stroke-linecap="butt" d="M414.67 330.392v2.481l9.645 4.761v45.583q0 8.921 5.733 13.456 5.759 4.536 14.781 4.536 6.43 0 11.865-2.681 5.458-2.707 11.266-8.545h.773v9.697h23.13v-2.455l-10.892-4.46v-62.373h-23.106v2.481l10.868 4.761v46.81q-2.916 2.607-7.902 4.01-4.96 1.378-9.098 1.378-6.73 0-10.942-3.533-4.212-3.558-4.212-10.324v-45.583z"/>
		<path fill="purple" d="M529.026 366.103v22.275q-4.03 1.96-7.206 2.72-3.153.76-6.373.76-10.096 0-10.096-9.337 0-3.48 1.467-6.322 1.49-2.867 6.46-5.342 4.995-2.499 15.748-4.754m-8.607-35.678q-4.71 0-8.827 1.813a42.4 42.4 0 0 0-7.862 4.51q-3.636 2.548-5.388 6.027-1.73 3.456-1.73 6.763 0 2.721.723 3.48.744.735 2.76.735h7.008l.679-.76v-4.214q0-5.122 2.015-8.185 2.014-3.087 7.117-3.087 4.71 0 8.41 3.7 3.702 3.676 3.702 8.773v11.002l-12.769 3.308q-11.584 3.015-16.491 8.43-4.905 5.415-4.906 12.79 0 7.4 4.161 11.542 4.184 4.116 10.49 4.117 5.673 0 10.842-2.549 5.19-2.548 8.673-6.469h.81q1.074 4.068 3.701 6.543 2.629 2.475 6.79 2.475 4.577 0 7.73-2.475 3.177-2.475 4.797-5.783v-.466l-.416-.294h-5.103q-3.088 0-4.84-.76-1.752-.759-2.694-1.813v-42.76q0-6.322-2.825-9.85-2.826-3.529-7.337-5.024a28.7 28.7 0 0 0-9.22-1.519" fill-rule="evenodd"/>
		<path stroke="purple" stroke-width="8" stroke-linejoin="round" stroke-linecap="butt" d="M529.026 366.103v22.275q-4.03 1.96-7.206 2.72-3.153.76-6.373.76-10.096 0-10.096-9.337 0-3.48 1.467-6.322 1.49-2.867 6.46-5.342 4.995-2.499 15.748-4.754zm-8.607-35.678q-4.71 0-8.827 1.813a42.4 42.4 0 0 0-7.862 4.51q-3.636 2.548-5.388 6.027-1.73 3.456-1.73 6.763 0 2.721.723 3.48.744.735 2.76.735h7.008l.679-.76v-4.214q0-5.122 2.015-8.185 2.014-3.087 7.117-3.087 4.71 0 8.41 3.7 3.702 3.676 3.702 8.773v11.002l-12.769 3.308q-11.584 3.015-16.491 8.43-4.905 5.415-4.906 12.79 0 7.4 4.161 11.542 4.184 4.116 10.49 4.117 5.673 0 10.842-2.549 5.19-2.548 8.673-6.469h.81q1.074 4.068 3.701 6.543 2.629 2.475 6.79 2.475 4.577 0 7.73-2.475 3.177-2.475 4.797-5.783v-.466l-.416-.294h-5.103q-3.088 0-4.84-.76-1.752-.759-2.694-1.813v-42.76q0-6.322-2.825-9.85-2.826-3.529-7.337-5.024a28.7 28.7 0 0 0-9.22-1.519z"/>
		<path fill="purple" d="M588.454 337.297q4.14 0 7.49 1.666 3.375 1.64 6.817 4.946v44.078q-3.442 2.358-7.096 3.562-3.63 1.179-7.072 1.179-8.7 0-15.005-5.894-6.281-5.92-6.281-18.99 0-11.02 2.93-17.708 2.933-6.714 7.701-9.764 4.792-3.075 10.516-3.075m24.869-53.38-19.868 8.661v1.102l9.306 8.175v29.138q-2.443-.642-5.444-1.025-3-.385-7.002-.385-9.283 0-17.146 4.895-7.863 4.87-12.586 14.249-4.722 9.353-4.722 22.73 0 9.918 3.21 17.094 3.234 7.15 8.864 11.096 5.653 3.921 12.795 3.921 5.723 0 10.794-2.28 5.072-2.282 10.516-7.304h1l1.14 8.02h20.147v-2.51l-10.144-4.562V283.916z" fill-rule="evenodd"/>
		<path stroke="purple" stroke-width="8" stroke-linejoin="round" stroke-linecap="butt" d="M588.454 337.297q4.14 0 7.49 1.666 3.375 1.64 6.817 4.946v44.078q-3.442 2.358-7.096 3.562-3.63 1.179-7.072 1.179-8.7 0-15.005-5.894-6.281-5.92-6.281-18.99 0-11.02 2.93-17.708 2.933-6.714 7.701-9.764 4.792-3.075 10.516-3.075zm24.869-53.38-19.868 8.661v1.102l9.306 8.175v29.138q-2.443-.642-5.444-1.025-3-.385-7.002-.385-9.283 0-17.146 4.895-7.863 4.87-12.586 14.249-4.722 9.353-4.722 22.73 0 9.918 3.21 17.094 3.234 7.15 8.864 11.096 5.653 3.921 12.795 3.921 5.723 0 10.794-2.28 5.072-2.282 10.516-7.304h1l1.14 8.02h20.147v-2.51l-10.144-4.562V283.916z"/>
		<path fill="#274e13" d="M311.453 323.304a4.803 4.803 0 1 1 9.606 0 4.803 4.803 0 0 1-9.606 0" fill-rule="evenodd"/>
		<path stroke="#38761d" stroke-linejoin="round" stroke-linecap="butt" d="M311.453 323.304a4.803 4.803 0 1 1 9.606 0 4.803 4.803 0 0 1-9.606 0z"/>
		<path fill="#274e13" d="M321.059 343.748a4.803 4.803 0 0 1 9.606 0 4.803 4.803 0 1 1-9.606 0" fill-rule="evenodd"/>
		<path stroke="#38761d" stroke-linejoin="round" stroke-linecap="butt" d="M321.059 343.748a4.803 4.803 0 0 1 9.606 0 4.803 4.803 0 1 1-9.606 0z"/>
		<path fill="#274e13" d="M321.059 343.748a4.803 4.803 0 0 1 9.606 0 4.803 4.803 0 1 1-9.606 0" fill-rule="evenodd"/>
		<path stroke="#38761d" stroke-linejoin="round" stroke-linecap="butt" d="M321.059 343.748a4.803 4.803 0 0 1 9.606 0 4.803 4.803 0 1 1-9.606 0z"/>
		<path fill="#274e13" d="M257.882 291.82q-14.83 3.91-24.764 14.48-9.906 10.524-13.424 25.524-3.49 14.953 1.018 32.05 5.842 22.152 22.185 32.273 16.334 10.083 38.486 4.241 13.938-3.675 22.446-13.472 8.544-9.806 11.188-21.037l-.598-2.268-.669.177q-14.5 13.602-27.063 16.916-15.053 3.969-25.236.175-10.146-3.804-16.347-12.545-6.2-8.74-9.092-19.704-4.695-17.804-.138-29.62 4.584-11.862 17.146-15.175 7.509-1.98 13.392-.47 5.921 1.5 10.546 5.17l10.532 8.432 1.598-.421 6.74-9.569q2.365-3.089 1.522-6.285-.657-2.49-5.446-5.878-5.895-3.812-15.405-4.604a54.5 54.5 0 0 0-18.617 1.61" fill-rule="evenodd"/>
		<path stroke="#274e13" stroke-width="8" stroke-linejoin="round" stroke-linecap="butt" d="M257.882 291.82q-14.83 3.91-24.764 14.48-9.906 10.524-13.424 25.524-3.49 14.953 1.018 32.05 5.842 22.152 22.185 32.273 16.334 10.083 38.486 4.241 13.938-3.675 22.446-13.472 8.544-9.806 11.188-21.037l-.598-2.268-.669.177q-14.5 13.602-27.063 16.916-15.053 3.969-25.236.175-10.146-3.804-16.347-12.545-6.2-8.74-9.092-19.704-4.695-17.804-.138-29.62 4.584-11.862 17.146-15.175 7.509-1.98 13.392-.47 5.921 1.5 10.546 5.17l10.532 8.432 1.598-.421 6.74-9.569q2.365-3.089 1.522-6.285-.657-2.49-5.446-5.878-5.895-3.812-15.405-4.604a54.5 54.5 0 0 0-18.617 1.61z"/>
		<path fill="#274e13" d="M302.467 298.752q6.832-2.651 13.086.728 6.264 3.343 11.329 10.525 5.087 7.173 8.417 15.757 2.715 7 3.558 14.057.832 7.03-1.151 12.48-1.972 5.413-7.447 7.537-6.833 2.65-13.164-.667-6.342-3.345-11.473-10.5-5.133-7.155-8.462-15.74-2.777-7.157-3.511-14.135-.746-7.003 1.226-12.418 1.983-5.448 7.592-7.624m-.996-7.454q-9.037 3.505-13.846 11.175-4.82 7.644-5.241 17.713-.432 10.042 3.79 20.925 4.21 10.856 11.312 18.007t15.814 9.545q8.714 2.394 17.75-1.112 9.014-3.495 13.834-11.14 4.842-7.651 5.263-17.72.421-10.07-3.79-20.926-4.221-10.881-11.312-18.007-7.103-7.15-15.837-9.536-8.723-2.42-17.737 1.076" fill-rule="evenodd"/>
		<path stroke="#274e13" stroke-width="8" stroke-linejoin="round" stroke-linecap="butt" d="M302.467 298.752q6.832-2.651 13.086.728 6.264 3.343 11.329 10.525 5.087 7.173 8.417 15.757 2.715 7 3.558 14.057.832 7.03-1.151 12.48-1.972 5.413-7.447 7.537-6.833 2.65-13.164-.667-6.342-3.345-11.473-10.5-5.133-7.155-8.462-15.74-2.777-7.157-3.511-14.135-.746-7.003 1.226-12.418 1.983-5.448 7.592-7.624zm-.996-7.454q-9.037 3.505-13.846 11.175-4.82 7.644-5.241 17.713-.432 10.042 3.79 20.925 4.21 10.856 11.312 18.007t15.814 9.545q8.714 2.394 17.75-1.112 9.014-3.495 13.834-11.14 4.842-7.651 5.263-17.72.421-10.07-3.79-20.926-4.221-10.881-11.312-18.007-7.103-7.15-15.837-9.536-8.723-2.42-17.737 1.076z"/>
		<path d="M0 0h314.96v35.496H0z"/>
	</g>
</svg>