<svg version="1.1" id="Layer_1" xmlns="http://www.w3.org/2000/svg" xmlns:xlink="http://www.w3.org/1999/xlink" x="0px" y="0px"
	 width="100%" viewBox="0 0 240 64" enable-background="new 0 0 240 64" xml:space="preserve">
<path fill="#F1F1F1" opacity="1.000000" stroke="none"
		d="
M456.000000,501.000000 
	C304.000031,501.000000 152.500076,501.000000 1.000081,501.000000 
	C1.000054,334.333405 1.000054,167.666824 1.000027,1.000171 
	C167.666550,1.000114 334.333099,1.000114 500.999756,1.000057 
	C500.999817,167.666519 500.999817,334.333038 500.999908,500.999756 
	C486.166656,501.000000 471.333344,501.000000 456.000000,501.000000 
M193.215881,234.201569 
	C193.238327,233.702255 193.279037,233.203003 193.280533,232.703613 
	C193.313599,221.654251 187.851257,213.168549 178.377960,209.544907 
	C169.725891,206.235413 161.038574,209.042801 153.452728,217.242966 
	C152.507828,218.264374 150.292938,218.694473 148.774734,218.509628 
	C136.664505,217.035202 123.918381,223.501755 118.223747,234.234818 
	C109.999039,249.736465 117.206757,269.869781 133.553589,277.055664 
	C149.334213,283.992676 168.645859,275.097015 174.434402,258.288422 
	C174.989883,256.675415 176.024673,255.227478 176.852615,254.689667 
	C176.363403,266.648254 181.093735,274.458710 190.645950,278.096008 
	C194.282837,279.480865 197.767197,281.348175 201.156113,283.284363 
	C207.223557,286.750885 213.560135,288.385284 220.162292,285.538239 
	C221.807007,284.829010 222.576828,282.090942 223.748764,280.285370 
	C222.010574,279.203430 220.394928,277.710022 218.502365,277.146545 
	C216.270645,276.482056 213.799301,276.622406 212.588715,276.515778 
	C215.095657,270.715179 218.693283,265.425140 219.589050,259.711548 
	C221.710800,246.178299 211.605682,232.586685 193.215881,234.201569 
M343.024811,268.428253 
	C343.695587,267.091339 344.476135,265.797455 345.019928,264.410736 
	C349.901886,251.962158 344.558746,239.357880 332.227386,236.698532 
	C324.538422,235.040390 316.367188,235.352600 308.410339,235.322281 
	C304.792755,235.308487 303.204071,240.102615 306.182343,242.227722 
	C309.286896,244.442932 309.066040,247.063705 309.060455,250.002563 
	C309.050018,255.502014 309.146698,261.003998 308.992401,266.499084 
	C308.956238,267.785797 308.446747,269.435852 307.548828,270.250671 
	C304.903503,272.651154 302.045410,271.363098 300.234161,267.006592 
	C296.467987,257.948120 292.981689,248.766434 288.939545,239.834869 
	C288.040375,237.848022 285.300323,235.459442 283.441803,235.487747 
	C281.570251,235.516235 278.958801,237.963593 278.030365,239.977524 
	C274.274353,248.124954 271.159882,256.565735 267.540344,264.780029 
	C266.538727,267.053162 264.444916,268.820953 263.165161,271.004059 
	C262.314026,272.456024 261.292145,274.442932 261.684875,275.804382 
	C262.052979,277.080505 264.088135,278.495392 265.554382,278.706757 
	C268.657288,279.154083 271.886932,279.067017 275.025879,278.778381 
	C276.678253,278.626434 279.345337,277.882843 279.613464,276.884888 
	C280.077148,275.159454 279.443329,272.800995 278.521149,271.118591 
	C277.049316,268.433441 277.613068,266.289642 280.571411,265.917542 
	C282.048004,265.731812 283.629700,265.608459 285.053131,265.936768 
	C287.831024,266.577545 288.677185,268.122070 287.106262,270.897400 
	C286.147491,272.591278 284.853210,275.129517 285.486633,276.408112 
	C286.160431,277.768219 288.925751,278.722778 290.789032,278.741638 
	C295.864441,278.792938 300.946106,278.010040 306.024689,278.016602 
	C312.302002,278.024689 318.587891,278.841522 324.853333,278.675751 
	C332.244995,278.480225 338.274139,275.142303 343.024811,268.428253 
M258.129333,235.142303 
	C254.632538,235.151657 251.111725,234.928864 247.650955,235.286636 
	C246.300034,235.426315 244.150726,236.746536 244.016144,237.750412 
	C243.790329,239.434601 244.423050,242.431946 245.511124,242.876038 
	C249.198807,244.381119 249.080078,247.045914 248.985519,250.098389 
	C248.866989,253.924759 248.989349,257.757965 248.941055,261.587372 
	C248.896652,265.107391 248.460663,268.494659 243.864471,268.694550 
	C239.543365,268.882446 237.175247,266.331055 237.003357,261.344421 
	C236.877228,257.684998 236.934143,254.018448 236.948975,250.355255 
	C236.960678,247.463531 236.361771,244.534058 239.774094,242.584625 
	C240.776932,242.011719 241.173828,239.156616 240.733948,237.679291 
	C240.401962,236.564301 238.339859,235.372284 236.968857,235.269653 
	C232.829483,234.959808 228.636047,234.963196 224.497559,235.282974 
	C223.135284,235.388229 221.233276,236.563385 220.745529,237.735245 
	C220.226227,238.982941 220.582001,241.760956 221.436768,242.216080 
	C225.515884,244.388062 224.579239,247.956406 224.649445,251.318329 
	C224.732819,255.311356 224.670700,259.315002 224.946732,263.294952 
	C225.639587,273.285065 232.185532,279.147644 242.422882,279.138214 
	C252.552063,279.128876 259.271515,273.114960 259.880341,263.176575 
	C260.195526,258.031952 259.888794,252.850601 260.150177,247.700424 
	C260.220276,246.319153 261.398621,245.013977 261.970825,243.633514 
	C262.742126,241.772842 264.324921,239.599945 263.864258,238.072250 
	C263.459534,236.730255 260.720245,236.092285 258.129333,235.142303 
M374.077484,273.470062 
	C379.386810,265.850037 377.622345,259.216003 371.391998,253.904175 
	C373.012054,252.686951 374.998108,251.944778 375.661102,250.566284 
	C378.469849,244.726135 374.698181,237.102158 368.449402,235.568314 
	C366.692749,235.137146 364.845184,234.866608 363.041168,234.876099 
	C356.746490,234.909195 352.266937,238.092758 349.665466,243.617767 
	C347.214966,248.822021 348.342560,253.638748 352.362854,257.774933 
	C352.898285,258.325775 353.275421,259.030518 353.790863,259.755432 
	C346.889526,261.472656 346.804077,261.481628 347.588409,268.944519 
	C347.898987,271.899475 346.992401,275.294373 350.854401,277.117920 
	C358.389832,280.675934 367.367554,279.607819 374.077484,273.470062 
z"/>
<path fill="#28707A" opacity="1.000000" stroke="none"
		d="
M176.836945,253.702911 
	C176.024673,255.227478 174.989883,256.675415 174.434402,258.288422 
	C168.645859,275.097015 149.334213,283.992676 133.553589,277.055664 
	C117.206757,269.869781 109.999039,249.736465 118.223747,234.234818 
	C123.918381,223.501755 136.664505,217.035202 148.774734,218.509628 
	C150.292938,218.694473 152.507828,218.264374 153.452728,217.242966 
	C161.038574,209.042801 169.725891,206.235413 178.377960,209.544907 
	C187.851257,213.168549 193.313599,221.654251 193.280533,232.703613 
	C193.279037,233.203003 193.238327,233.702255 193.172150,235.065552 
	C192.517029,240.259445 195.746933,238.773178 197.697464,238.788864 
	C209.023087,238.879837 215.959427,245.842468 216.126373,257.069611 
	C216.255402,265.748230 211.907944,271.386658 202.828934,275.812958 
	C209.085800,278.300354 213.957977,280.237244 218.830170,282.174164 
	C215.284485,282.697418 211.189514,283.376526 207.800476,282.132507 
	C201.231644,279.721222 194.889465,276.531952 188.770477,273.099731 
	C182.351517,269.499268 180.324844,263.168121 180.161011,256.186707 
	C180.102341,253.686798 179.824509,252.028259 176.836945,253.702911 
M139.660645,229.908997 
	C142.881485,229.727509 146.102325,229.546036 149.651276,229.346054 
	C149.651276,227.505417 149.651276,225.605515 149.651276,223.757675 
	C136.669830,220.855988 122.176476,230.671402 120.054695,243.585831 
	C117.559601,258.772491 127.970558,273.001801 143.311523,274.672760 
	C155.294556,275.977966 169.501740,265.289948 169.720963,254.367157 
	C167.933350,253.992737 166.086899,253.605988 164.196808,253.210098 
	C163.557175,255.087296 163.152161,256.533356 162.580536,257.910278 
	C159.643478,264.985016 150.208755,270.066620 142.985580,268.506195 
	C134.255783,266.620300 127.044670,258.616852 126.031990,249.689835 
	C125.021095,240.778595 129.169724,234.458527 139.660645,229.908997 
M138.333038,261.348083 
	C145.021637,265.077454 151.583786,264.177063 156.312897,258.881104 
	C159.700867,255.087021 159.544525,251.335526 156.412903,247.514481 
	C154.442062,245.109756 152.606445,242.384811 151.539536,239.497101 
	C149.888016,235.027069 146.685562,233.765350 142.555038,234.165375 
	C135.615784,234.837418 129.780212,241.201889 131.146027,247.986588 
	C132.065811,252.555786 135.441559,256.630585 138.333038,261.348083 
M187.009491,239.066925 
	C187.308731,235.307449 188.263168,231.460526 187.775360,227.806107 
	C186.644150,219.331543 177.807526,212.317581 170.246674,213.229767 
	C161.825638,214.245758 155.659622,219.863388 154.958374,227.158401 
	C153.981277,237.323090 158.595352,245.480682 166.945267,248.350952 
	C174.137146,250.823135 182.055222,247.391434 187.009491,239.066925 
M198.622345,273.049561 
	C203.892838,273.329041 207.779327,270.970245 209.614807,266.181976 
	C212.406906,258.898041 211.608368,251.761230 206.802658,245.480743 
	C203.183304,240.750656 195.504608,239.208527 191.628021,242.415771 
	C185.748367,247.280273 184.671844,253.939270 186.225464,260.924957 
	C187.592651,267.072296 190.887344,271.914490 198.622345,273.049561 
z"/>
<path fill="#891B7D" opacity="1.000000" stroke="none"
		d="
M342.838837,268.743164 
	C338.274139,275.142303 332.244995,278.480225 324.853333,278.675751 
	C318.587891,278.841522 312.302002,278.024689 306.024689,278.016602 
	C300.946106,278.010040 295.864441,278.792938 290.789032,278.741638 
	C288.925751,278.722778 286.160431,277.768219 285.486633,276.408112 
	C284.853210,275.129517 286.147491,272.591278 287.106262,270.897400 
	C288.677185,268.122070 287.831024,266.577545 285.053131,265.936768 
	C283.629700,265.608459 282.048004,265.731812 280.571411,265.917542 
	C277.613068,266.289642 277.049316,268.433441 278.521149,271.118591 
	C279.443329,272.800995 280.077148,275.159454 279.613464,276.884888 
	C279.345337,277.882843 276.678253,278.626434 275.025879,278.778381 
	C271.886932,279.067017 268.657288,279.154083 265.554382,278.706757 
	C264.088135,278.495392 262.052979,277.080505 261.684875,275.804382 
	C261.292145,274.442932 262.314026,272.456024 263.165161,271.004059 
	C264.444916,268.820953 266.538727,267.053162 267.540344,264.780029 
	C271.159882,256.565735 274.274353,248.124954 278.030365,239.977524 
	C278.958801,237.963593 281.570251,235.516235 283.441803,235.487747 
	C285.300323,235.459442 288.040375,237.848022 288.939545,239.834869 
	C292.981689,248.766434 296.467987,257.948120 300.234161,267.006592 
	C302.045410,271.363098 304.903503,272.651154 307.548828,270.250671 
	C308.446747,269.435852 308.956238,267.785797 308.992401,266.499084 
	C309.146698,261.003998 309.050018,255.502014 309.060455,250.002563 
	C309.066040,247.063705 309.286896,244.442932 306.182343,242.227722 
	C303.204071,240.102615 304.792755,235.308487 308.410339,235.322281 
	C316.367188,235.352600 324.538422,235.040390 332.227386,236.698532 
	C344.558746,239.357880 349.901886,251.962158 345.019928,264.410736 
	C344.476135,265.797455 343.695587,267.091339 342.838837,268.743164 
M336.218079,270.785126 
	C345.732483,261.619019 345.387512,247.406479 335.462433,241.748367 
	C327.172546,237.022430 318.334534,239.589493 308.598602,239.018478 
	C314.400818,244.193253 314.491150,269.589325 309.790588,274.509186 
	C321.603058,276.348724 329.195374,275.368835 336.218079,270.785126 
M275.169525,264.561432 
	C276.881012,262.345764 286.805786,260.382751 288.614075,262.532043 
	C290.732483,265.049927 291.727234,268.513184 293.117157,271.376343 
	C291.598450,272.722290 290.610901,273.597504 289.288910,274.769165 
	C293.674103,274.769165 297.415497,274.769165 300.741730,274.769165 
	C299.173889,271.969971 297.386505,269.325226 296.139465,266.446411 
	C292.843628,258.837585 289.820038,251.111267 286.596924,243.470200 
	C285.896759,241.810226 284.815247,240.311096 283.219604,237.539932 
	C277.356873,250.969543 272.085907,263.043671 266.984283,274.729858 
	C269.237061,274.729858 272.574097,274.729858 275.911102,274.729858 
	C269.912659,272.037628 274.196381,268.474060 275.169525,264.561432 
z"/>
<path fill="#861A7B" opacity="1.000000" stroke="none"
		d="
M258.570679,235.142822 
	C260.720245,236.092285 263.459534,236.730255 263.864258,238.072250 
	C264.324921,239.599945 262.742126,241.772842 261.970825,243.633514 
	C261.398621,245.013977 260.220276,246.319153 260.150177,247.700424 
	C259.888794,252.850601 260.195526,258.031952 259.880341,263.176575 
	C259.271515,273.114960 252.552063,279.128876 242.422882,279.138214 
	C232.185532,279.147644 225.639587,273.285065 224.946732,263.294952 
	C224.670700,259.315002 224.732819,255.311356 224.649445,251.318329 
	C224.579239,247.956406 225.515884,244.388062 221.436768,242.216080 
	C220.582001,241.760956 220.226227,238.982941 220.745529,237.735245 
	C221.233276,236.563385 223.135284,235.388229 224.497559,235.282974 
	C228.636047,234.963196 232.829483,234.959808 236.968857,235.269653 
	C238.339859,235.372284 240.401962,236.564301 240.733948,237.679291 
	C241.173828,239.156616 240.776932,242.011719 239.774094,242.584625 
	C236.361771,244.534058 236.960678,247.463531 236.948975,250.355255 
	C236.934143,254.018448 236.877228,257.684998 237.003357,261.344421 
	C237.175247,266.331055 239.543365,268.882446 243.864471,268.694550 
	C248.460663,268.494659 248.896652,265.107391 248.941055,261.587372 
	C248.989349,257.757965 248.866989,253.924759 248.985519,250.098389 
	C249.080078,247.045914 249.198807,244.381119 245.511124,242.876038 
	C244.423050,242.431946 243.790329,239.434601 244.016144,237.750412 
	C244.150726,236.746536 246.300034,235.426315 247.650955,235.286636 
	C251.111725,234.928864 254.632538,235.151657 258.570679,235.142822 
M251.196411,268.474487 
	C248.367355,273.151825 243.884628,272.697723 239.668365,271.676331 
	C234.878128,270.515869 233.564865,266.253662 233.190979,262.004669 
	C232.813370,257.713348 232.814301,253.344528 233.151245,249.049026 
	C233.403519,245.832993 234.452118,242.679428 235.169128,239.392822 
	C232.552902,239.392822 228.660950,239.392822 226.028107,239.392822 
	C226.751801,242.278748 227.807205,244.979858 228.046951,247.751541 
	C228.574722,253.853119 228.123428,260.084808 229.123215,266.088257 
	C230.283997,273.058350 236.106964,275.955200 245.073105,275.100586 
	C251.417191,274.495911 255.741257,270.131073 256.043304,263.653351 
	C256.267700,258.840790 256.269165,254.006683 256.108826,249.190887 
	C255.980209,245.327301 255.723694,241.584595 260.047058,239.387634 
	C256.000427,239.387634 251.953827,239.387634 248.191177,239.387634 
	C249.786331,241.132675 252.598236,242.787445 252.615509,244.470917 
	C252.695190,252.229950 251.996002,259.996979 251.196411,268.474487 
z"/>
<path fill="#871B7C" opacity="1.000000" stroke="none"
		d="
M373.846863,273.759613 
	C367.367554,279.607819 358.389832,280.675934 350.854401,277.117920 
	C346.992401,275.294373 347.898987,271.899475 347.588409,268.944519 
	C346.804077,261.481628 346.889526,261.472656 353.790863,259.755432 
	C353.275421,259.030518 352.898285,258.325775 352.362854,257.774933 
	C348.342560,253.638748 347.214966,248.822021 349.665466,243.617767 
	C352.266937,238.092758 356.746490,234.909195 363.041168,234.876099 
	C364.845184,234.866608 366.692749,235.137146 368.449402,235.568314 
	C374.698181,237.102158 378.469849,244.726135 375.661102,250.566284 
	C374.998108,251.944778 373.012054,252.686951 371.391998,253.904175 
	C377.622345,259.216003 379.386810,265.850037 373.846863,273.759613 
M367.567627,263.123383 
	C369.604614,266.440399 369.651886,270.070557 366.110535,271.700134 
	C363.650604,272.832123 359.816437,272.668427 357.306824,271.524567 
	C354.814606,270.388672 353.211273,267.302429 351.217834,265.071808 
	C350.835907,274.149780 350.861450,274.180786 359.695129,275.378845 
	C365.466888,276.161621 371.151184,273.172974 372.750000,268.514954 
	C374.552765,263.262573 372.702820,259.250336 366.891846,255.867111 
	C365.025879,254.780716 362.713562,254.113785 361.355591,252.587509 
	C359.550568,250.558731 357.866669,247.994583 357.371735,245.421738 
	C357.149323,244.265610 360.115967,241.171295 361.317749,241.332047 
	C364.120636,241.707016 366.842590,243.334747 369.363708,244.845016 
	C370.357666,245.440460 370.729553,247.074371 371.825592,249.016678 
	C372.192047,239.774445 370.959412,238.543274 362.738159,238.835297 
	C362.074280,238.858887 361.388306,238.823654 360.752319,238.978729 
	C356.327332,240.057571 353.283051,242.849670 352.285980,247.201263 
	C351.364746,251.221771 353.502777,254.243393 356.889893,256.347595 
	C360.266235,258.445129 363.677002,260.487152 367.567627,263.123383 
M364.641785,268.313385 
	C364.595276,264.326904 360.266907,261.156158 354.369537,260.924103 
	C356.609985,264.881958 357.013916,270.794739 364.641785,268.313385 
M361.147919,247.868042 
	C363.213806,249.281219 365.279724,250.694397 367.345612,252.107574 
	C367.435303,249.546036 366.976685,247.470352 365.711639,246.193985 
	C364.150482,244.618896 361.744263,242.856323 361.147919,247.868042 
z"/>
<path fill="#871B7C" opacity="1.000000" stroke="none"
		d="
M176.844788,254.196289 
	C179.824509,252.028259 180.102341,253.686798 180.161011,256.186707 
	C180.324844,263.168121 182.351517,269.499268 188.770477,273.099731 
	C194.889465,276.531952 201.231644,279.721222 207.800476,282.132507 
	C211.189514,283.376526 215.284485,282.697418 218.830170,282.174164 
	C213.957977,280.237244 209.085800,278.300354 202.828934,275.812958 
	C211.907944,271.386658 216.255402,265.748230 216.126373,257.069611 
	C215.959427,245.842468 209.023087,238.879837 197.697464,238.788864 
	C195.746933,238.773178 192.517029,240.259445 193.207275,235.524734 
	C211.605682,232.586685 221.710800,246.178299 219.589050,259.711548 
	C218.693283,265.425140 215.095657,270.715179 212.588715,276.515778 
	C213.799301,276.622406 216.270645,276.482056 218.502365,277.146545 
	C220.394928,277.710022 222.010574,279.203430 223.748764,280.285370 
	C222.576828,282.090942 221.807007,284.829010 220.162292,285.538239 
	C213.560135,288.385284 207.223557,286.750885 201.156113,283.284363 
	C197.767197,281.348175 194.282837,279.480865 190.645950,278.096008 
	C181.093735,274.458710 176.363403,266.648254 176.844788,254.196289 
z"/>
<path fill="#831478" opacity="1.000000" stroke="none"
		d="
M139.277893,230.001495 
	C129.169724,234.458527 125.021095,240.778595 126.031990,249.689835 
	C127.044670,258.616852 134.255783,266.620300 142.985580,268.506195 
	C150.208755,270.066620 159.643478,264.985016 162.580536,257.910278 
	C163.152161,256.533356 163.557175,255.087296 164.196808,253.210098 
	C166.086899,253.605988 167.933350,253.992737 169.720963,254.367157 
	C169.501740,265.289948 155.294556,275.977966 143.311523,274.672760 
	C127.970558,273.001801 117.559601,258.772491 120.054695,243.585831 
	C122.176476,230.671402 136.669830,220.855988 149.651276,223.757675 
	C149.651276,225.605515 149.651276,227.505417 149.651276,229.346054 
	C146.102325,229.546036 142.881485,229.727509 139.277893,230.001495 
z"/>
<path fill="#EDEFEF" opacity="1.000000" stroke="none"
		d="
M138.025818,261.137329 
	C135.441559,256.630585 132.065811,252.555786 131.146027,247.986588 
	C129.780212,241.201889 135.615784,234.837418 142.555038,234.165375 
	C146.685562,233.765350 149.888016,235.027069 151.539536,239.497101 
	C152.606445,242.384811 154.442062,245.109756 156.412903,247.514481 
	C159.544525,251.335526 159.700867,255.087021 156.312897,258.881104 
	C151.583786,264.177063 145.021637,265.077454 138.025818,261.137329 
z"/>
<path fill="#831478" opacity="1.000000" stroke="none"
		d="
M186.850250,239.430008 
	C182.055222,247.391434 174.137146,250.823135 166.945267,248.350952 
	C158.595352,245.480682 153.981277,237.323090 154.958374,227.158401 
	C155.659622,219.863388 161.825638,214.245758 170.246674,213.229767 
	C177.807526,212.317581 186.644150,219.331543 187.775360,227.806107 
	C188.263168,231.460526 187.308731,235.307449 186.850250,239.430008 
M182.058838,234.599960 
	C181.431686,228.442078 179.718994,222.543335 174.350296,219.066071 
	C172.088181,217.600952 168.085358,217.097900 165.678223,218.096527 
	C163.528824,218.988205 160.995605,222.725647 161.252487,224.897339 
	C161.874496,230.156006 163.508514,235.469147 165.716492,240.312759 
	C167.595520,244.434784 171.749680,246.042923 176.313080,244.781570 
	C180.933884,243.504364 182.256165,239.867310 182.058838,234.599960 
z"/>
<path fill="#871B7C" opacity="1.000000" stroke="none"
		d="
M198.211456,273.031799 
	C190.887344,271.914490 187.592651,267.072296 186.225464,260.924957 
	C184.671844,253.939270 185.748367,247.280273 191.628021,242.415771 
	C195.504608,239.208527 203.183304,240.750656 206.802658,245.480743 
	C211.608368,251.761230 212.406906,258.898041 209.614807,266.181976 
	C207.779327,270.970245 203.892838,273.329041 198.211456,273.031799 
M206.268967,264.351624 
	C207.929474,258.662445 208.048569,252.854416 204.005325,248.358185 
	C202.142227,246.286331 198.227417,244.993561 195.395752,245.224152 
	C193.427216,245.384460 190.331528,248.638611 190.177353,250.693512 
	C189.833832,255.271881 189.997681,260.418396 191.814056,264.507477 
	C194.713699,271.035248 201.631821,270.971924 206.268967,264.351624 
z"/>
<path fill="#266C78" opacity="1.000000" stroke="none"
		d="
M335.906616,270.981995 
	C329.195374,275.368835 321.603058,276.348724 309.790588,274.509186 
	C314.491150,269.589325 314.400818,244.193253 308.598602,239.018478 
	C318.334534,239.589493 327.172546,237.022430 335.462433,241.748367 
	C345.387512,247.406479 345.732483,261.619019 335.906616,270.981995 
M317.889801,268.281525 
	C318.782074,269.515533 319.507874,271.634308 320.593872,271.838623 
	C327.168549,273.075653 333.132568,270.303070 335.993683,265.158325 
	C339.032379,259.694336 338.520691,251.785904 334.832336,247.210938 
	C331.027100,242.491028 324.724304,240.856461 317.888031,243.003967 
	C317.888031,251.041702 317.888031,259.185333 317.889801,268.281525 
z"/>
<path fill="#266C78" opacity="1.000000" stroke="none"
		d="
M275.024139,264.936798 
	C274.196381,268.474060 269.912659,272.037628 275.911102,274.729858 
	C272.574097,274.729858 269.237061,274.729858 266.984283,274.729858 
	C272.085907,263.043671 277.356873,250.969543 283.219604,237.539932 
	C284.815247,240.311096 285.896759,241.810226 286.596924,243.470200 
	C289.820038,251.111267 292.843628,258.837585 296.139465,266.446411 
	C297.386505,269.325226 299.173889,271.969971 300.741730,274.769165 
	C297.415497,274.769165 293.674103,274.769165 289.288910,274.769165 
	C290.610901,273.597504 291.598450,272.722290 293.117157,271.376343 
	C291.727234,268.513184 290.732483,265.049927 288.614075,262.532043 
	C286.805786,260.382751 276.881012,262.345764 275.024139,264.936798 
M287.192261,257.168182 
	C285.874298,253.878235 284.556305,250.588272 282.780640,246.155930 
	C280.786682,251.022110 279.325531,254.588028 277.307343,259.513428 
	C281.421173,258.851837 284.402405,258.372406 287.192261,257.168182 
z"/>
<path fill="#266C78" opacity="1.000000" stroke="none"
		d="
M251.386261,268.117798 
	C251.996002,259.996979 252.695190,252.229950 252.615509,244.470917 
	C252.598236,242.787445 249.786331,241.132675 248.191177,239.387634 
	C251.953827,239.387634 256.000427,239.387634 260.047058,239.387634 
	C255.723694,241.584595 255.980209,245.327301 256.108826,249.190887 
	C256.269165,254.006683 256.267700,258.840790 256.043304,263.653351 
	C255.741257,270.131073 251.417191,274.495911 245.073105,275.100586 
	C236.106964,275.955200 230.283997,273.058350 229.123215,266.088257 
	C228.123428,260.084808 228.574722,253.853119 228.046951,247.751541 
	C227.807205,244.979858 226.751801,242.278748 226.028107,239.392822 
	C228.660950,239.392822 232.552902,239.392822 235.169128,239.392822 
	C234.452118,242.679428 233.403519,245.832993 233.151245,249.049026 
	C232.814301,253.344528 232.813370,257.713348 233.190979,262.004669 
	C233.564865,266.253662 234.878128,270.515869 239.668365,271.676331 
	C243.884628,272.697723 248.367355,273.151825 251.386261,268.117798 
z"/>
<path fill="#266C78" opacity="1.000000" stroke="none"
		d="
M367.320160,262.838440 
	C363.677002,260.487152 360.266235,258.445129 356.889893,256.347595 
	C353.502777,254.243393 351.364746,251.221771 352.285980,247.201263 
	C353.283051,242.849670 356.327332,240.057571 360.752319,238.978729 
	C361.388306,238.823654 362.074280,238.858887 362.738159,238.835297 
	C370.959412,238.543274 372.192047,239.774445 371.825592,249.016678 
	C370.729553,247.074371 370.357666,245.440460 369.363708,244.845016 
	C366.842590,243.334747 364.120636,241.707016 361.317749,241.332047 
	C360.115967,241.171295 357.149323,244.265610 357.371735,245.421738 
	C357.866669,247.994583 359.550568,250.558731 361.355591,252.587509 
	C362.713562,254.113785 365.025879,254.780716 366.891846,255.867111 
	C372.702820,259.250336 374.552765,263.262573 372.750000,268.514954 
	C371.151184,273.172974 365.466888,276.161621 359.695129,275.378845 
	C350.861450,274.180786 350.835907,274.149780 351.217957,265.071655 
	C353.211273,267.302429 354.814606,270.388672 357.306824,271.524567 
	C359.816437,272.668427 363.650604,272.832123 366.110535,271.700134 
	C369.651886,270.070557 369.604614,266.440399 367.320160,262.838440 
z"/>
<path fill="#F1F1F1" opacity="1.000000" stroke="none"
		d="
M364.324524,268.569763 
	C357.013916,270.794739 356.609985,264.881958 354.369537,260.924103 
	C360.266907,261.156158 364.595276,264.326904 364.324524,268.569763 
z"/>
<path fill="#EDE7EC" opacity="1.000000" stroke="none"
		d="
M361.031616,247.485535 
	C361.744263,242.856323 364.150482,244.618896 365.711639,246.193985 
	C366.976685,247.470352 367.435303,249.546036 367.345612,252.107574 
	C365.279724,250.694397 363.213806,249.281219 361.031616,247.485535 
z"/>
<path fill="#28707A" opacity="1.000000" stroke="none"
		d="
M182.066391,235.028046 
	C182.256165,239.867310 180.933884,243.504364 176.313080,244.781570 
	C171.749680,246.042923 167.595520,244.434784 165.716492,240.312759 
	C163.508514,235.469147 161.874496,230.156006 161.252487,224.897339 
	C160.995605,222.725647 163.528824,218.988205 165.678223,218.096527 
	C168.085358,217.097900 172.088181,217.600952 174.350296,219.066071 
	C179.718994,222.543335 181.431686,228.442078 182.066391,235.028046 
M171.641373,239.160950 
	C174.916046,241.089661 177.402542,239.801712 176.815216,236.407196 
	C176.060745,232.046494 174.052719,227.839203 172.108643,223.794693 
	C171.651367,222.843338 169.135178,222.221466 167.853745,222.554489 
	C166.973495,222.783264 165.805054,225.172775 166.120529,226.166107 
	C167.477844,230.439819 169.336121,234.554413 171.641373,239.160950 
z"/>
<path fill="#EDEFEF" opacity="1.000000" stroke="none"
		d="
M206.110321,264.734070 
	C201.631821,270.971924 194.713699,271.035248 191.814056,264.507477 
	C189.997681,260.418396 189.833832,255.271881 190.177353,250.693512 
	C190.331528,248.638611 193.427216,245.384460 195.395752,245.224152 
	C198.227417,244.993561 202.142227,246.286331 204.005325,248.358185 
	C208.048569,252.854416 207.929474,258.662445 206.110321,264.734070 
z"/>
<path fill="#861A7B" opacity="1.000000" stroke="none"
		d="
M317.888916,267.805237 
	C317.888031,259.185333 317.888031,251.041702 317.888031,243.003967 
	C324.724304,240.856461 331.027100,242.491028 334.832336,247.210938 
	C338.520691,251.785904 339.032379,259.694336 335.993683,265.158325 
	C333.132568,270.303070 327.168549,273.075653 320.593872,271.838623 
	C319.507874,271.634308 318.782074,269.515533 317.888916,267.805237 
M331.041504,265.596191 
	C335.114502,260.842682 335.199615,255.518921 332.508667,250.300140 
	C330.316528,246.048813 326.192749,245.415314 321.650879,246.182419 
	C321.650879,253.483582 321.650879,260.662140 321.650879,268.963226 
	C325.036194,267.871552 327.745941,266.997711 331.041504,265.596191 
z"/>
<path fill="#831478" opacity="1.000000" stroke="none"
		d="
M287.287964,257.530579 
	C284.402405,258.372406 281.421173,258.851837 277.307343,259.513428 
	C279.325531,254.588028 280.786682,251.022110 282.780640,246.155930 
	C284.556305,250.588272 285.874298,253.878235 287.287964,257.530579 
z"/>
<path fill="#EDEFEF" opacity="1.000000" stroke="none"
		d="
M171.326660,238.943954 
	C169.336121,234.554413 167.477844,230.439819 166.120529,226.166107 
	C165.805054,225.172775 166.973495,222.783264 167.853745,222.554489 
	C169.135178,222.221466 171.651367,222.843338 172.108643,223.794693 
	C174.052719,227.839203 176.060745,232.046494 176.815216,236.407196 
	C177.402542,239.801712 174.916046,241.089661 171.326660,238.943954 
z"/>
<path fill="#EDE7EC" opacity="1.000000" stroke="none"
		d="
M330.748596,265.860046 
	C327.745941,266.997711 325.036194,267.871552 321.650879,268.963226 
	C321.650879,260.662140 321.650879,253.483582 321.650879,246.182419 
	C326.192749,245.415314 330.316528,246.048813 332.508667,250.300140 
	C335.199615,255.518921 335.114502,260.842682 330.748596,265.860046 
z"/>
</svg>